<svg id="Layer_1" data-name="Layer 1" xmlns="http://www.w3.org/2000/svg" xmlns:xlink="http://www.w3.org/1999/xlink" viewBox="0 0 338 77"><defs><style>.cls-1,.cls-2,.cls-3,.cls-4{fill-rule:evenodd;}.cls-1{fill:url(#linear-gradient);}.cls-2{fill:url(#linear-gradient-2);}.cls-3{fill:url(#linear-gradient-3);}.cls-4{fill:url(#linear-gradient-4);}.cls-5{fill:url(#linear-gradient-5);}.cls-6{fill:url(#linear-gradient-6);}.cls-7{fill:url(#linear-gradient-7);}.cls-8{fill:url(#linear-gradient-8);}.cls-9{fill:url(#linear-gradient-9);}.cls-10{fill:url(#linear-gradient-10);}.cls-11{fill:url(#linear-gradient-11);}.cls-12{fill:url(#linear-gradient-12);}.cls-13{fill:url(#linear-gradient-13);}.cls-14{fill:url(#linear-gradient-14);}.cls-15{fill:url(#linear-gradient-15);}.cls-16{fill:url(#linear-gradient-16);}.cls-17{fill:url(#linear-gradient-17);}</style><linearGradient id="linear-gradient" x1="36.49" y1="38.64" x2="58.8" y2="38.64" gradientUnits="userSpaceOnUse"><stop offset="0" stop-color="#b08131"/><stop offset="0.28" stop-color="#fce975"/><stop offset="1" stop-color="#b0802d"/></linearGradient><linearGradient id="linear-gradient-2" x1="39.29" y1="38.3" x2="48.77" y2="38.3" gradientUnits="userSpaceOnUse"><stop offset="0" stop-color="#9d762b"/><stop offset="0.21" stop-color="#fbd450"/><stop offset="0.4" stop-color="#f8f3a9"/><stop offset="0.47" stop-color="#fbd450"/><stop offset="0.75" stop-color="#9d762b"/><stop offset="0.97" stop-color="#fbd450"/><stop offset="1" stop-color="#fbd450"/></linearGradient><linearGradient id="linear-gradient-3" x1="33.83" y1="38.23" x2="51.82" y2="38.23" xlink:href="#linear-gradient"/><linearGradient id="linear-gradient-4" x1="226.02" y1="21.06" x2="284.46" y2="57.75" gradientTransform="translate(298 76) rotate(180)" gradientUnits="userSpaceOnUse"><stop offset="0" stop-color="#c79d25"/><stop offset="0.16" stop-color="#fbd450"/><stop offset="0.27" stop-color="#f8f3a9"/><stop offset="0.35" stop-color="#f8f2a6"/><stop offset="0.42" stop-color="#f9f09c"/><stop offset="0.48" stop-color="#faed8b"/><stop offset="0.54" stop-color="#fbe874"/><stop offset="0.59" stop-color="#f8e472"/><stop offset="0.64" stop-color="#eed96a"/><stop offset="0.69" stop-color="#dec55e"/><stop offset="0.74" stop-color="#c8aa4c"/><stop offset="0.79" stop-color="#ac8836"/><stop offset="0.81" stop-color="#9d762b"/><stop offset="0.96" stop-color="#fbd450"/></linearGradient><linearGradient id="linear-gradient-5" x1="90.76" y1="38" x2="108.54" y2="38" gradientUnits="userSpaceOnUse"><stop offset="0" stop-color="#b08131"/><stop offset="0.28" stop-color="#fce975"/><stop offset="0.75" stop-color="#f5e06d"/><stop offset="1" stop-color="#b0802d"/></linearGradient><linearGradient id="linear-gradient-6" x1="111.03" x2="126.24" xlink:href="#linear-gradient-5"/><linearGradient id="linear-gradient-7" x1="128.44" x2="143.17" xlink:href="#linear-gradient-5"/><linearGradient id="linear-gradient-8" x1="146.2" x2="161.88" xlink:href="#linear-gradient-5"/><linearGradient id="linear-gradient-9" x1="164.56" x2="182.35" xlink:href="#linear-gradient-5"/><linearGradient id="linear-gradient-10" x1="181.27" y1="38.14" x2="196.96" y2="38.14" xlink:href="#linear-gradient-5"/><linearGradient id="linear-gradient-11" x1="208.99" x2="224.61" xlink:href="#linear-gradient-5"/><linearGradient id="linear-gradient-12" x1="227.26" x2="243.23" xlink:href="#linear-gradient-5"/><linearGradient id="linear-gradient-13" x1="246.99" y1="37.86" x2="260.51" y2="37.86" xlink:href="#linear-gradient-5"/><linearGradient id="linear-gradient-14" x1="263" y1="37.86" x2="276.52" y2="37.86" xlink:href="#linear-gradient-5"/><linearGradient id="linear-gradient-15" x1="279.01" x2="283.46" xlink:href="#linear-gradient-5"/><linearGradient id="linear-gradient-16" x1="286.93" x2="303.48" xlink:href="#linear-gradient-5"/><linearGradient id="linear-gradient-17" x1="306.92" x2="323.24" xlink:href="#linear-gradient-5"/></defs><path class="cls-1" d="M51.92,38a12,12,0,0,1,3.17.86,6.49,6.49,0,0,1,2.13,1.44,5,5,0,0,1,1.2,1.93,6.72,6.72,0,0,1,.38,2.32,7.77,7.77,0,0,1-.52,2.81,5.93,5.93,0,0,1-1.77,2.42,9.34,9.34,0,0,1-3.29,1.7,17.54,17.54,0,0,1-5.11.64H36.49V50.65H40.2V40.05l.29-.17a5.47,5.47,0,0,1,.67-.3h0a7.8,7.8,0,0,1,.93-.24h0a13.78,13.78,0,0,1,1.38-.2h0l.35,0V50.65h4a15.15,15.15,0,0,0,3.28-.3,4.81,4.81,0,0,0,2.14-1,3.86,3.86,0,0,0,1.16-1.84,9.54,9.54,0,0,0,.35-2.83,9,9,0,0,0-.32-2.6,3.6,3.6,0,0,0-1.21-1.8,5.94,5.94,0,0,0-2.43-1,17,17,0,0,0-1.7-.24v-.84h0v-.92a7.44,7.44,0,0,0,3.06-1,3.58,3.58,0,0,0,1.3-1.77,8.43,8.43,0,0,0,.39-2.77,8.43,8.43,0,0,0-.25-2.2,3.12,3.12,0,0,0-1-1.56,4.54,4.54,0,0,0-2-.94,14.39,14.39,0,0,0-3.26-.3H43.83v9.94h0c-.7,0-1.37.11-2,.21a15.51,15.51,0,0,0-1.62.31V26.63H36.49V25.14H47.64a19.74,19.74,0,0,1,4.78.49A9.25,9.25,0,0,1,55.58,27a5.17,5.17,0,0,1,1.74,2,5.74,5.74,0,0,1,.53,2.49,6.5,6.5,0,0,1-.33,2.07,5.55,5.55,0,0,1-1.06,1.85,6.83,6.83,0,0,1-1.84,1.51,10.49,10.49,0,0,1-2.7,1Z"/><path class="cls-2" d="M39.29,39.59v-2A22.16,22.16,0,0,1,43.42,37v.31h2.49a27.41,27.41,0,0,0,2.86-.13v1l0,.91c-.62,0-1.29-.05-2-.05H45v-.47a22.44,22.44,0,0,0-3.72.36A6.34,6.34,0,0,0,39.29,39.59Z"/><path class="cls-3" d="M38.65,30.94c-.13.08-.26.16-.38.25a3.23,3.23,0,0,1,.75,1,2.59,2.59,0,0,1,.24,1.06,2,2,0,0,1-2.13,2.08,2.51,2.51,0,0,1-.82-.13,1.79,1.79,0,0,1-.7-.39,1.92,1.92,0,0,1-.47-.7,2.2,2.2,0,0,1-.18-1,3.36,3.36,0,0,1,.47-1.68,4.44,4.44,0,0,1,1.42-1.45,7.16,7.16,0,0,1,1.8-.85v1.74ZM51.82,47.22V45.71a11,11,0,0,1-1.4.13,2.26,2.26,0,0,1-1-.16,1.1,1.1,0,0,1-.51-.53,2.84,2.84,0,0,1-.2-1c0-.41,0-.93,0-1.55s0-1.32,0-2.12,0-1.58,0-2.36,0-1.48,0-2.12,0-1.11,0-1.4a8.28,8.28,0,0,0-.42-2.83,4.13,4.13,0,0,0-1.22-1.83,4.91,4.91,0,0,0-2-1,7.54,7.54,0,0,0-1.11-.2v2.09l.22.19a3.65,3.65,0,0,1,.8,2.69c0,.49,0,1,0,1.49s0,1.08,0,1.71q-5.43.11-8.31,1.64A4.85,4.85,0,0,0,33.83,43,5.11,5.11,0,0,0,34.19,45a4.1,4.1,0,0,0,1.06,1.51,4.78,4.78,0,0,0,1.71,1,7.24,7.24,0,0,0,1.69.33V45.3l-.18-.19a3.78,3.78,0,0,1-.69-2.48,5,5,0,0,1,.28-1.69,2.65,2.65,0,0,1,1.06-1.26,6.13,6.13,0,0,1,2.19-.81A22.6,22.6,0,0,1,45,38.52v2.06a5.33,5.33,0,0,1-1,3.39v2A7.66,7.66,0,0,0,45,44.88h.11A3.63,3.63,0,0,0,45.35,46a2,2,0,0,0,.61.82,3,3,0,0,0,1.16.51,7.32,7.32,0,0,0,1.84.18c.3,0,.7,0,1.21,0A11.83,11.83,0,0,0,51.82,47.22Zm-13.17-18a12,12,0,0,1,5.41-.45v2.09s-2.16-1.5-5.41.1M44.06,46a7.9,7.9,0,0,1-5.41,1.81V45.3A5.88,5.88,0,0,0,44.06,44"/><path class="cls-4" d="M40.88,59.74h0a15.11,15.11,0,0,1,7.87,0h0a7.93,7.93,0,0,1,3.17,11.82,7.93,7.93,0,0,1-4.12-10c.93.26,2,2.76,2.85,4.43a8.56,8.56,0,0,0-2.59-5h0l-.31-.08a14.4,14.4,0,0,0-6,0l-.21.07A8.63,8.63,0,0,0,39,66c.88-1.67,1.93-4.17,2.86-4.43a8,8,0,0,1-4.12,10,7.93,7.93,0,0,1,3.17-11.82M26.71,50.46h0A15.13,15.13,0,0,1,32.29,56h0a7.92,7.92,0,0,1-6.11,10.59,7.93,7.93,0,0,1,4.17-10c.48.84-.55,3.35-1.1,5.15A8.69,8.69,0,0,0,31,56.38h0a2.88,2.88,0,0,0-.17-.27,14.1,14.1,0,0,0-4.24-4.22l-.2-.11A8.69,8.69,0,0,0,21,53.5c1.8-.55,4.31-1.58,5.15-1.1a7.93,7.93,0,0,1-10,4.17,7.92,7.92,0,0,1,10.59-6.11Zm-1.82,7.4a4.05,4.05,0,0,1-4.41,4.41,4.05,4.05,0,0,1,4.41-4.41Zm-1.63-24h0v0a15.11,15.11,0,0,1,0,7.87h0a7.93,7.93,0,0,1-11.82,3.17,7.93,7.93,0,0,1,10-4.12c-.26.93-2.76,2-4.43,2.85a8.56,8.56,0,0,0,5-2.59h0l.08-.31a14.4,14.4,0,0,0,0-6s0-.1-.07-.21A8.63,8.63,0,0,0,17,32c1.67.88,4.17,1.93,4.43,2.86a8,8,0,0,1-10-4.12,7.93,7.93,0,0,1,11.82,3.17Zm-6.53,3.94a4,4,0,0,1-6.23,0,4.05,4.05,0,0,1,6.23,0ZM32.54,19.71h0v0A15.13,15.13,0,0,1,27,25.29h0a7.92,7.92,0,0,1-10.59-6.11,7.93,7.93,0,0,1,10,4.17c-.84.48-3.35-.55-5.15-1.1A8.69,8.69,0,0,0,26.62,24h0a2.88,2.88,0,0,0,.27-.17,14.1,14.1,0,0,0,4.22-4.24l.11-.2A8.69,8.69,0,0,0,29.5,14c.55,1.8,1.58,4.31,1.1,5.15a7.93,7.93,0,0,1-4.17-10,7.92,7.92,0,0,1,6.11,10.59Zm-7.4-1.82a4.05,4.05,0,0,1-4.41-4.41,4.05,4.05,0,0,1,4.41,4.41Zm24-1.63h0a15.11,15.11,0,0,1-7.87,0h0A7.93,7.93,0,0,1,38.06,4.44a7.93,7.93,0,0,1,4.12,10c-.93-.26-2-2.76-2.85-4.43a8.56,8.56,0,0,0,2.59,5h0l.31.08a14.4,14.4,0,0,0,6,0l.21-.07A8.63,8.63,0,0,0,51,10c-.88,1.67-1.93,4.17-2.86,4.43a8,8,0,0,1,4.12-10,7.93,7.93,0,0,1-3.17,11.82ZM45.18,9.73a4,4,0,0,1,0-6.23,4.05,4.05,0,0,1,0,6.23ZM63.29,25.54h0A15.13,15.13,0,0,1,57.71,20h0A7.92,7.92,0,0,1,63.82,9.37a7.93,7.93,0,0,1-4.17,10c-.48-.84.55-3.35,1.1-5.15A8.69,8.69,0,0,0,59,19.62h0a2.88,2.88,0,0,0,.17.27,14.1,14.1,0,0,0,4.24,4.22l.2.11A8.69,8.69,0,0,0,69,22.5c-1.8.55-4.31,1.58-5.15,1.1a7.93,7.93,0,0,1,10-4.17,7.92,7.92,0,0,1-10.59,6.11Zm1.82-7.4a4.05,4.05,0,0,1,4.41-4.41,4.05,4.05,0,0,1-4.41,4.41Zm1.63,24h0v0a15.11,15.11,0,0,1,0-7.87h0a7.93,7.93,0,0,1,11.82-3.17,7.93,7.93,0,0,1-10,4.12c.26-.93,2.76-2,4.43-2.85a8.56,8.56,0,0,0-5,2.59h0l-.08.31a14.4,14.4,0,0,0,0,6s0,.1.07.21A8.63,8.63,0,0,0,73,44c-1.67-.88-4.17-1.93-4.43-2.86a8,8,0,0,1,10,4.12,7.93,7.93,0,0,1-11.82-3.17Zm6.53-3.94a4,4,0,0,1,6.23,0,4.05,4.05,0,0,1-6.23,0ZM57.46,56.29h0v0A15.13,15.13,0,0,1,63,50.71h0a7.92,7.92,0,0,1,10.59,6.11,7.93,7.93,0,0,1-10-4.17c.84-.48,3.35.55,5.15,1.1A8.69,8.69,0,0,0,63.38,52h0a2.88,2.88,0,0,0-.27.17,14.1,14.1,0,0,0-4.22,4.24l-.11.2A8.69,8.69,0,0,0,60.5,62c-.55-1.8-1.58-4.31-1.1-5.15a7.93,7.93,0,0,1,4.17,10,7.92,7.92,0,0,1-6.11-10.59Zm7.4,1.82a4.05,4.05,0,0,1,4.41,4.41,4.05,4.05,0,0,1-4.41-4.41Zm-20,8.16a4,4,0,0,1,0,6.23,4.05,4.05,0,0,1,0-6.23Z"/><path class="cls-5" d="M95.15,48a2.38,2.38,0,0,1-2.1,1.5,2.14,2.14,0,0,1-2.29-2,2.35,2.35,0,0,1,.1-.69l6.2-18.11c.41-1.24,1-2.16,2.58-2.16s2.16.89,2.61,2.16l6.2,18.11a2.72,2.72,0,0,1,.09.69,2.1,2.1,0,0,1-2.29,2,2.44,2.44,0,0,1-2.16-1.5L103,44.79H96.2Zm5.06-12.28a18.75,18.75,0,0,1-.57-3.11,19.85,19.85,0,0,1-.58,3.11l-1.68,5.45h4.45Z"/><path class="cls-6" d="M118.92,37.06l7,9.23a1.58,1.58,0,0,1,.35,1.08,2.2,2.2,0,0,1-2.16,2.13,2.23,2.23,0,0,1-1.85-.92l-6.17-8.27-.57.63v6.49a2.24,2.24,0,0,1-4.46,0V28.54a2.24,2.24,0,0,1,4.46,0v6l6.3-7.16a2.54,2.54,0,0,1,1.81-.92,2.32,2.32,0,0,1,2.2,2,1.7,1.7,0,0,1-.55,1.36Z"/><path class="cls-7" d="M137.29,40.56c-.67-.28-1.47-.57-2.33-.86-3.11-1-6.49-2-6.49-6.61,0-4.11,2.87-6.59,7.39-6.59,1.87,0,6.39.48,6.39,2.86a2.06,2.06,0,0,1-2.23,2,5.68,5.68,0,0,1-1.56-.35,6.13,6.13,0,0,0-2.41-.48c-1.56,0-3,.54-3,2.42a2.12,2.12,0,0,0,1.34,2.13,12.43,12.43,0,0,0,2.29.86c3.12,1,6.52,2.07,6.52,6.58s-3.37,7-7.92,7c-2.35,0-6.81-.83-6.81-3a2.11,2.11,0,0,1,2.1-2,4.6,4.6,0,0,1,1.59.39,9.4,9.4,0,0,0,3.15.63c2.2,0,3.31-1,3.31-2.73A2.07,2.07,0,0,0,137.29,40.56Z"/><path class="cls-8" d="M159.66,49.5a2.2,2.2,0,0,1-2.23-2.07V40h-6.78v7.41a2.23,2.23,0,0,1-4.45,0V28.54a2.23,2.23,0,0,1,4.45,0V36h6.78V28.54a2.23,2.23,0,0,1,4.45,0V47.43A2.17,2.17,0,0,1,159.66,49.5Z"/><path class="cls-9" d="M169,48a2.36,2.36,0,0,1-2.1,1.5,2.14,2.14,0,0,1-2.29-2,2.74,2.74,0,0,1,.1-.69l6.2-18.11c.42-1.24,1-2.16,2.58-2.16s2.16.89,2.61,2.16l6.2,18.11a2.35,2.35,0,0,1,.1.69,2.1,2.1,0,0,1-2.29,2,2.44,2.44,0,0,1-2.17-1.5l-1.11-3.21H170ZM174,35.72a21.07,21.07,0,0,1-.57-3.11,21.07,21.07,0,0,1-.57,3.11l-1.69,5.45h4.46Z"/><path class="cls-10" d="M186.87,30.83H183.5a2.12,2.12,0,0,1-2.23-2,2.3,2.3,0,0,1,2.23-2h11.2a2.21,2.21,0,0,1,2.26,2,2.19,2.19,0,0,1-2.26,2h-3.37V47.46a2.24,2.24,0,0,1-4.46,0Z"/><path class="cls-11" d="M211.47,49.21A2.39,2.39,0,0,1,209,46.92V29.08a2.39,2.39,0,0,1,2.48-2.29h5.38c4.77,0,7.16,3.05,7.16,6.23,0,2.23-1.43,3.6-3.34,4.52,2,.79,3.94,2.23,3.94,5,0,3.73-3,6.68-7.89,6.68Zm5.63-13.64a2.39,2.39,0,0,0,2.45-2.48,2.06,2.06,0,0,0-2.22-2.3h-3.88v4.78Zm-3.65,4.07v5.53H217c2.1,0,3.15-1.05,3.15-2.7a2.72,2.72,0,0,0-3-2.83Z"/><path class="cls-12" d="M235.25,49.5c-5.13,0-8-3.37-8-7.92v-13a2.14,2.14,0,0,1,2.26-2.1,2.17,2.17,0,0,1,2.19,2.1v13c0,2.29,1.12,3.88,3.54,3.88s3.5-1.62,3.5-3.88v-13a2.16,2.16,0,0,1,2.19-2.1,2.21,2.21,0,0,1,2.29,2.1v13C243.23,46.16,240.27,49.5,235.25,49.5Z"/><path class="cls-13" d="M258.35,49.21h-9A2.31,2.31,0,0,1,247,47V28.54a2.24,2.24,0,0,1,4.46,0V45.21h6.9a2,2,0,1,1,0,4Z"/><path class="cls-14" d="M274.36,49.21h-9A2.3,2.3,0,0,1,263,47V28.54a2.23,2.23,0,0,1,4.45,0V45.21h6.91a2,2,0,1,1,0,4Z"/><path class="cls-15" d="M279,28.54a2.15,2.15,0,0,1,2.23-2,2.18,2.18,0,0,1,2.22,2V47.46a2.18,2.18,0,0,1-2.22,2,2.15,2.15,0,0,1-2.23-2Z"/><path class="cls-16" d="M286.93,41.13v-6.3c0-4.51,2.32-8.33,8.27-8.33s8.28,3.82,8.28,8.33v6.3c0,4.65-2.77,8.37-8.28,8.37S286.93,45.78,286.93,41.13Zm4.46-6.3v6.3c0,2.55,1.21,4.33,3.81,4.33S299,43.68,299,41.13v-6.3c0-2.57-1-4.29-3.82-4.29S291.39,32.26,291.39,34.83Z"/><path class="cls-17" d="M318.75,48.39l-7.38-12.86v11.9a2.21,2.21,0,0,1-2.26,2.07,2.13,2.13,0,0,1-2.19-2.07V28.66a2.18,2.18,0,0,1,2.32-2.16,2.63,2.63,0,0,1,2.16,1.18c2.84,4.9,4.46,7.79,7.39,12.91v-12A2.21,2.21,0,0,1,321,26.5a2.13,2.13,0,0,1,2.2,2.07V47.34a2.21,2.21,0,0,1-2.35,2.16A2.65,2.65,0,0,1,318.75,48.39Z"/></svg>