<svg id="Layer_1" data-name="Layer 1" xmlns="http://www.w3.org/2000/svg" xmlns:xlink="http://www.w3.org/1999/xlink" viewBox="0 0 1000 1000"><defs><style>.cls-1,.cls-2,.cls-3,.cls-4{fill-rule:evenodd;}.cls-1{fill:#fff;}.cls-2{fill:#fff;}.cls-3{fill:#fff}.cls-4{fill:#fff}</style><linearGradient id="linear-gradient" x1="369.54" y1="512" x2="692.92" y2="512" gradientUnits="userSpaceOnUse"><stop offset="0" stop-color="#b08131"/><stop offset="0.28" stop-color="#fce975"/><stop offset="1" stop-color="#b0802d"/></linearGradient><linearGradient id="linear-gradient-2" x1="410.21" y1="507.03" x2="547.58" y2="507.03" gradientUnits="userSpaceOnUse"><stop offset="0" stop-color="#9d762b"/><stop offset="0.21" stop-color="#fbd450"/><stop offset="0.4" stop-color="#f8f3a9"/><stop offset="0.47" stop-color="#fbd450"/><stop offset="0.75" stop-color="#9d762b"/><stop offset="0.97" stop-color="#fbd450"/><stop offset="1" stop-color="#fbd450"/></linearGradient><linearGradient id="linear-gradient-3" x1="331.08" y1="506.06" x2="591.8" y2="506.06" xlink:href="#linear-gradient"/><linearGradient id="linear-gradient-4" x1="120.97" y1="266.54" x2="967.93" y2="798.2" gradientTransform="translate(1024 1024) rotate(180)" gradientUnits="userSpaceOnUse"><stop offset="0" stop-color="#c79d25"/><stop offset="0.16" stop-color="#fbd450"/><stop offset="0.27" stop-color="#f8f3a9"/><stop offset="0.35" stop-color="#f8f2a6"/><stop offset="0.42" stop-color="#f9f09c"/><stop offset="0.48" stop-color="#faed8b"/><stop offset="0.54" stop-color="#fbe874"/><stop offset="0.59" stop-color="#f8e472"/><stop offset="0.64" stop-color="#eed96a"/><stop offset="0.69" stop-color="#dec55e"/><stop offset="0.74" stop-color="#c8aa4c"/><stop offset="0.79" stop-color="#ac8836"/><stop offset="0.81" stop-color="#9d762b"/><stop offset="0.96" stop-color="#fbd450"/></linearGradient></defs><path class="cls-1" d="M593.22,503c17.94,2.67,33.3,6.8,46,12.51s23,12.5,30.9,20.78a75,75,0,0,1,17.38,28,99.89,99.89,0,0,1,5.43,33.66,112.63,112.63,0,0,1-7.54,40.75c-5,13.16-13.52,24.83-25.57,35.13s-28,18.4-47.73,24.56-44.42,9.29-74,9.29H369.54V686.11h53.9V532.4l4.08-2.37a54.48,54.48,0,0,1,9.82-4.35h0a109.16,109.16,0,0,1,13.45-3.53l0,0a190.64,190.64,0,0,1,20-2.85h0l5.19-.44V686.11h57.67c18.85,0,34.67-1.48,47.55-4.42s23.17-7.91,31-14.71,13.43-15.73,16.83-26.76,5.06-24.65,5.06-41c0-14.62-1.56-27.22-4.69-37.71a52.11,52.11,0,0,0-17.48-26c-8.54-6.81-20.31-11.78-35.31-15A205.26,205.26,0,0,0,552,516.92v-.48l.21-11.72v0l.18-12.16,0-1q4.83-.64,9.25-1.46c14.62-2.66,26.21-7.27,35-13.8a52.42,52.42,0,0,0,18.85-25.75c3.78-10.67,5.71-24,5.71-40,0-12.23-1.29-22.9-3.77-32a46,46,0,0,0-14.07-22.62c-6.81-6.07-16.29-10.49-28.43-13.52s-27.86-4.42-47.27-4.42H476.05V481.94l-.51,0q-15.3,1-28.72,3c-8.17,1.2-16,2.74-23.38,4.56V337.89h-53.9V316.37h161.7q41,0,69.25,7t45.8,19.4c11.69,8.28,20.06,18,25.21,29.15a85.21,85.21,0,0,1,7.72,36.15,94.71,94.71,0,0,1-4.87,30.07,81.6,81.6,0,0,1-15.27,26.77c-6.9,8.28-15.82,15.54-26.67,21.89s-23.92,11.32-39.19,15.08Z" transform="translate(-12 -12)"/><path class="cls-2" d="M410.21,525.73V497.21q25.94-6.68,59.8-8.88v4.52h36.06q23.13,0,41.51-1.86l-.22,13.83-.23,13.32q-13.41-.82-29-.82H493.43v-6.75q-33.4.93-53.95,5.12C427.34,518.12,417.54,521.46,410.21,525.73Z" transform="translate(-12 -12)"/><path class="cls-3" d="M401,400.43a48.17,48.17,0,0,0-5.48,3.52,49.06,49.06,0,0,1,10.88,15,38.18,38.18,0,0,1,3.45,15.46c0,8.57-2.72,15.79-8.26,21.54s-13.07,8.57-22.69,8.57a38.24,38.24,0,0,1-11.92-1.88,25.42,25.42,0,0,1-10-5.75,28.66,28.66,0,0,1-6.89-10,33.61,33.61,0,0,1-2.62-13.9,47.53,47.53,0,0,1,6.91-24.36c4.6-7.94,11.39-14.94,20.48-21A104,104,0,0,1,401,375.12v25.31ZM591.8,636.34v-22a144.32,144.32,0,0,1-20.28,1.88c-5.86,0-10.46-.73-13.8-2.3a15.31,15.31,0,0,1-7.32-7.63c-1.68-3.66-2.62-8.47-3-14.42s-.62-13.6-.62-22.59,0-19,.1-30.63.32-22.89.52-34.18.32-21.53.42-30.84.22-16.1.22-20.17c0-16.32-2-30.11-6.07-41.09s-9.82-20-17.67-26.55-17.45-11.4-28.85-14.33a136.64,136.64,0,0,0-16.14-2.94v30.29a30.29,30.29,0,0,1,3.28,2.76c7.63,7.42,11.5,20.39,11.5,39,0,7.1-.1,14.32-.1,21.64s-.31,15.57-.52,24.77q-78.72,1.57-120.54,23.84c-27.8,14.74-41.81,36.38-41.81,64.81a74,74,0,0,0,5.23,28.12,59.72,59.72,0,0,0,15.36,21.95c6.69,6.17,14.95,10.87,24.77,14.33A96.22,96.22,0,0,0,401,644.82V608.51c-.92-.87-1.8-1.81-2.66-2.8-6.58-7.94-9.92-19.86-9.92-35.86a71.58,71.58,0,0,1,4-24.57c2.71-7.1,7.83-13.27,15.36-18.28s18.2-8.89,31.78-11.61,31.68-4.49,53.95-5.12v29.79c0,14.53-2.31,26.77-6.9,36.59a82.53,82.53,0,0,1-7.26,12.62v29.39a114.33,114.33,0,0,0,13.84-16.19h1.57A51.61,51.61,0,0,0,498,618.05,28.42,28.42,0,0,0,506.91,630c4.08,3.25,9.62,5.75,16.73,7.43s16,2.61,26.76,2.61c4.28,0,10.14-.2,17.46-.63A176,176,0,0,0,591.8,636.34ZM401,375.12s28.28-11.66,78.32-6.52v30.29s-31.21-21.65-78.32,1.54m78.32,218.23S453.11,644.82,401,644.82V608.51s42.06,13.33,78.32-19.24" transform="translate(-12 -12)"/><path class="cls-4" d="M452.24,827.1l.08.12v0l.31-.08a218.58,218.58,0,0,1,114,0v0l.07-.1a115,115,0,0,1,45.88,171.23A115,115,0,0,1,552.81,853c13.5,3.78,28.69,40,41.43,64.12-.84-15.67-15.61-56.15-37.62-73l0-.09c-2.13-.54-3.92-1-4.48-1.12a205,205,0,0,0-86.79.31c-.26.06-1.46.41-3.12.9-22,16.87-36.78,57.35-37.63,73C437.37,893,452.56,856.81,466.07,853a115,115,0,0,1-59.72,145.3A115,115,0,0,1,452.24,827.1M246.93,692.55l0,.15v0l.27.17a218.47,218.47,0,0,1,80.57,80.63h-.05l.13,0A115,115,0,0,1,239.2,927a115,115,0,0,1,60.52-145c6.86,12.23-8,48.56-16.05,74.65,10.48-11.68,28.67-50.74,25-78.23l.1,0c-1.12-1.89-2.07-3.49-2.37-4a205,205,0,0,0-61.59-61.15c-.23-.15-1.32-.75-2.85-1.57-27.5-3.65-66.56,14.54-78.24,25,26.09-8.07,62.41-22.92,74.65-16.05a115,115,0,0,1-145,60.52,115,115,0,0,1,153.52-88.63ZM220.51,799.87a58.6,58.6,0,0,1-63.88,63.87,58.58,58.58,0,0,1,63.88-63.87ZM196.9,452.24l-.12.08h0c0,.1,0,.21.08.31a218.58,218.58,0,0,1,0,114l0,0,.11.08A115,115,0,0,1,25.67,612.53,115,115,0,0,1,171,552.81c-3.78,13.5-40,28.69-64.12,41.43,15.67-.84,56.15-15.61,73-37.62l.09,0c.54-2.13,1-3.92,1.12-4.48a205,205,0,0,0-.31-86.79c-.06-.26-.41-1.46-.9-3.12-16.87-22-57.35-36.79-73-37.63C131,437.37,167.19,452.56,171,466.07a115,115,0,0,1-145.3-59.72A115,115,0,0,1,196.9,452.24Zm-94.57,57.2a58.59,58.59,0,0,1-90.33,0,58.59,58.59,0,0,1,90.33,0ZM331.45,246.93l-.15,0h0c-.06.09-.11.19-.17.27a218.47,218.47,0,0,1-80.63,80.57v-.05l0,.13A115,115,0,0,1,97,239.2a115,115,0,0,1,145,60.52c-12.23,6.86-48.56-8-74.65-16.05,11.68,10.48,50.74,28.67,78.23,25l0,.1c1.89-1.12,3.49-2.07,4-2.37a205,205,0,0,0,61.15-61.59c.15-.23.75-1.32,1.57-2.85,3.65-27.5-14.54-66.56-25-78.24,8.07,26.09,22.92,62.42,16,74.65a115,115,0,0,1-60.52-145,115,115,0,0,1,88.63,153.52ZM224.13,220.51a58.6,58.6,0,0,1-63.87-63.88,58.58,58.58,0,0,1,63.87,63.88ZM571.76,196.9l-.08-.12v0l-.31.08a218.58,218.58,0,0,1-114,0l0,0-.08.11A115,115,0,0,1,411.47,25.67,115,115,0,0,1,471.19,171c-13.5-3.78-28.69-40-41.43-64.12.84,15.67,15.61,56.15,37.62,73l0,.09c2.13.54,3.92,1,4.48,1.12a205,205,0,0,0,86.79-.31c.26-.06,1.46-.41,3.12-.9,22-16.87,36.79-57.35,37.63-73C586.63,131,571.44,167.19,557.93,171a115,115,0,0,1,59.72-145.3A115,115,0,0,1,571.76,196.9Zm-57.2-94.57a58.59,58.59,0,0,1,0-90.33,58.59,58.59,0,0,1,0,90.33ZM777.07,331.45l0-.15v0l-.27-.17a218.47,218.47,0,0,1-80.57-80.63h0l-.13,0A115,115,0,0,1,784.8,97a115,115,0,0,1-60.52,145c-6.86-12.23,8-48.56,16.05-74.65-10.48,11.68-28.67,50.74-25,78.23l-.1,0c1.12,1.89,2.07,3.49,2.37,4a205,205,0,0,0,61.59,61.15c.23.15,1.32.75,2.85,1.57,27.5,3.65,66.56-14.54,78.24-25-26.09,8.07-62.42,22.92-74.65,16a115,115,0,0,1,145-60.52,115,115,0,0,1-153.52,88.63Zm26.42-107.32a58.6,58.6,0,0,1,63.88-63.87,58.58,58.58,0,0,1-63.88,63.87ZM827.1,571.76l.12-.08h0c0-.1-.05-.21-.08-.31a218.58,218.58,0,0,1,0-114h0l-.11-.07a115,115,0,0,1,171.23-45.88A115,115,0,0,1,853,471.19c3.78-13.5,40-28.69,64.12-41.43-15.67.84-56.15,15.61-73,37.62l-.09,0c-.54,2.13-1,3.92-1.12,4.48a205,205,0,0,0,.31,86.79c.06.26.41,1.46.9,3.12,16.87,22,57.35,36.78,73,37.63C893,586.63,856.81,571.44,853,557.93a115,115,0,0,1,145.3,59.72A115,115,0,0,1,827.1,571.76Zm94.57-57.2a58.59,58.59,0,0,1,90.33,0,58.59,58.59,0,0,1-90.33,0ZM692.55,777.07l.15,0h0l.17-.27a218.47,218.47,0,0,1,80.63-80.57v0l0-.13A115,115,0,0,1,927,784.8a115,115,0,0,1-145-60.52c12.23-6.86,48.56,8,74.65,16.05-11.68-10.48-50.74-28.67-78.23-25l0-.1c-1.89,1.12-3.49,2.07-4,2.37a205,205,0,0,0-61.15,61.59c-.15.23-.75,1.32-1.57,2.85-3.65,27.5,14.54,66.56,25,78.24-8.07-26.09-22.92-62.41-16.05-74.65a115,115,0,0,1,60.52,145,115,115,0,0,1-88.63-153.52Zm107.32,26.42a58.6,58.6,0,0,1,63.87,63.88,58.58,58.58,0,0,1-63.87-63.88ZM509.44,921.67a58.59,58.59,0,0,1,0,90.33,58.59,58.59,0,0,1,0-90.33Z" transform="translate(-12 -12)"/></svg>