<svg xmlns="http://www.w3.org/2000/svg" viewBox="0 0 1001 1001"><defs><style>.a,.c,.d{fill:#4e2e24;}.a,.d{stroke:#4e2e24;stroke-miterlimit:10;}.a,.b,.c{fill-rule:evenodd;}.b{fill:#808284;}</style></defs><path class="a" d="M451.46,1008.34l-23.41-3.08c-7.81-1-12.09-8.46-7.69-15.46l10.51-16.69c4.4-7,14.26-13.78,22.05-12.75L474,963.13c7.79,1,9.21,6.56,5.49,14l-9.64,19.2C466.1,1003.72,459.27,1009.37,451.46,1008.34ZM572.54,15.66,596,18.74c7.81,1,12.09,8.46,7.68,15.46l-10.5,16.69c-4.4,7-14.26,13.78-22.06,12.75l-21-2.77c-7.8-1-9.21-6.57-5.49-14l9.64-19.2c3.72-7.41,10.55-13.06,18.36-12ZM15.66,451.46l3.08-23.41c1-7.81,8.46-12.09,15.46-7.69l16.69,10.51c7,4.4,13.78,14.26,12.75,22.05L60.87,474c-1,7.79-6.57,9.21-14,5.49l-19.2-9.64c-7.41-3.72-13.06-10.55-12-18.36Zm992.68,121.08L1005.26,596c-1,7.81-8.46,12.09-15.46,7.68l-16.69-10.5c-7-4.4-13.78-14.26-12.75-22.06l2.77-21c1-7.79,6.56-9.21,14-5.49l19.2,9.64c7.41,3.72,13.06,10.55,12,18.36ZM820.15,905.78l-18.72,14.37c-6.25,4.8-14.54,2.57-16.37-5.5l-4.38-19.23c-1.83-8.06.35-19.82,6.58-24.61l16.85-12.92c6.23-4.79,11.15-1.87,13.76,6l6.76,20.39C827.25,892.15,826.41,901,820.15,905.78ZM203.85,118.22l18.72-14.37c6.25-4.8,14.54-2.57,16.37,5.5l4.38,19.23c1.83,8.06-.35,19.82-6.58,24.61l-16.85,12.92c-6.24,4.79-11.15,1.87-13.76-6l-6.77-20.39c-2.6-7.87-1.77-16.7,4.49-21.5ZM118.22,820.15l-14.37-18.72c-4.8-6.25-2.56-14.54,5.5-16.37l19.23-4.38c8.06-1.83,19.82.35,24.61,6.58l12.92,16.84c4.79,6.24,1.87,11.16-6,13.77l-20.39,6.76c-7.87,2.62-16.7,1.78-21.5-4.48ZM905.78,203.84l14.37,18.73c4.8,6.25,2.56,14.54-5.5,16.37l-19.23,4.37c-8.06,1.84-19.82-.34-24.61-6.57l-12.92-16.85c-4.79-6.24-1.87-11.15,6-13.76l20.39-6.76c7.87-2.62,16.7-1.78,21.5,4.47ZM266.12,947.39l-20.44-11.8c-6.83-3.94-7.94-12.45-1.19-17.23l16.1-11.4c6.74-4.78,18.44-7.27,25.25-3.34l18.38,10.62c6.81,3.93,6,9.59-.27,15l-16.26,14c-6.26,5.43-14.74,8-21.57,4.09ZM757.88,76.61l20.44,11.8c6.82,3.94,7.93,12.44,1.18,17.23L763.41,117c-6.74,4.78-18.44,7.27-25.25,3.34l-18.39-10.62c-6.81-3.93-6-9.59.28-15L736.3,80.69c6.28-5.42,14.75-8,21.58-4.08ZM76.61,266.12l11.8-20.44c3.94-6.83,12.45-7.94,17.23-1.19l11.4,16.1c4.78,6.74,7.27,18.44,3.34,25.25l-10.62,18.38c-3.93,6.81-9.59,6-15-.27l-14-16.26c-5.43-6.27-8-14.75-4.09-21.57ZM947.39,757.88l-11.8,20.44c-3.94,6.82-12.45,7.93-17.23,1.18L907,763.41c-4.78-6.75-7.27-18.44-3.34-25.25l10.61-18.39c3.94-6.81,9.6-6,15,.28l14,16.25c5.43,6.28,8,14.75,4.09,21.58ZM646,993.73l-22.8,6.11c-7.62,2-14.42-3.19-13-11.34l3.32-19.44c1.39-8.16,7.9-18.19,15.5-20.22l20.5-5.5c7.6-2,11,2.55,10.43,10.82l-1.56,21.42C657.77,983.85,653.62,991.69,646,993.73ZM378,30.27l22.8-6.11c7.62-2,14.41,3.19,13,11.35L410.5,54.94c-1.39,8.15-7.91,18.19-15.5,20.22l-20.51,5.5c-7.59,2-11-2.54-10.42-10.82l1.56-21.43c.6-8.26,4.75-16.1,12.36-18.14ZM30.27,646,24.16,623.2c-2-7.61,3.19-14.41,11.35-13l19.43,3.32c8.15,1.39,18.19,7.9,20.22,15.5l5.5,20.5c2,7.6-2.55,11-10.82,10.43l-21.42-1.56c-8.27-.6-16.11-4.75-18.15-12.36ZM993.73,378l6.11,22.8c2,7.62-3.19,14.41-11.34,13l-19.44-3.32c-8.16-1.39-18.19-7.91-20.22-15.5l-5.5-20.51c-2-7.59,2.54-11,10.82-10.41l21.42,1.55c8.27.6,16.11,4.75,18.15,12.36ZM51.88,707.74l-9-21.81c-3-7.28,1.28-14.71,9.55-14.39l19.7.75c8.26.31,19.06,5.46,22.07,12.73l8.12,19.61c3,7.26-1.08,11.26-9.35,11.74l-21.45,1.26c-8.28.48-16.59-2.61-19.61-9.89ZM972.12,316.26l9,21.81c3,7.28-1.28,14.7-9.55,14.39l-19.7-.75c-8.26-.31-19.06-5.46-22.07-12.73l-8.13-19.61c-3-7.26,1.08-11.26,9.36-11.75l21.45-1.25C960.79,305.89,969.1,309,972.12,316.26ZM316.26,51.88l21.81-9c7.28-3,14.71,1.28,14.39,9.55l-.75,19.7c-.31,8.27-5.46,19.06-12.73,22.07l-19.61,8.13c-7.26,3-11.26-1.09-11.74-9.36l-1.26-21.45c-.48-8.28,2.61-16.59,9.89-19.61ZM707.74,972.12l-21.81,9c-7.28,3-14.7-1.28-14.39-9.55l.75-19.7c.31-8.26,5.46-19.06,12.73-22.07l19.61-8.12c7.26-3,11.26,1.07,11.75,9.35l1.25,21.45C718.11,960.79,715,969.1,707.74,972.12Zm-382.69,3.64-21.8-9c-7.28-3-9.5-11.31-3.43-16.93l14.47-13.4c6.07-5.62,17.34-9.62,24.6-6.61l19.62,8.13c7.26,3,7.19,8.72,1.68,14.92l-14.28,16c-5.51,6.2-13.57,9.89-20.86,6.87ZM699,48.24l21.8,9c7.28,3,9.5,11.31,3.43,16.93L709.71,87.6c-6.06,5.63-17.34,9.62-24.6,6.61l-19.62-8.12c-7.26-3-7.19-8.73-1.68-14.93l14.28-16c5.51-6.19,13.57-9.88,20.86-6.87ZM48.24,325.05l9-21.8c3-7.28,11.31-9.49,16.93-3.43l13.4,14.47c5.63,6.07,9.62,17.34,6.61,24.6l-8.12,19.62c-3,7.26-8.73,7.19-14.93,1.68l-16-14.28c-6.2-5.51-9.88-13.57-6.87-20.86ZM975.76,699l-9,21.8c-3,7.28-11.31,9.5-16.93,3.43l-13.4-14.47c-5.63-6.06-9.62-17.34-6.61-24.6l8.13-19.62c3-7.26,8.72-7.19,14.92-1.68l16,14.28c6.2,5.51,9.89,13.57,6.87,20.86ZM12,516.76v-23.6c0-7.89,6.81-13.1,14.33-9.65l17.92,8.24c7.51,3.45,15.52,12.34,15.52,20.2v21.23c0,7.86-5.31,10-13.15,7.27L26.33,533.4C18.5,530.68,12,524.64,12,516.76Zm1000-9.52v23.61c0,7.88-6.81,13.09-14.33,9.64l-17.92-8.24c-7.51-3.45-15.52-12.34-15.52-20.2V490.82c0-7.86,5.31-10,13.15-7.27l20.29,7.05C1005.5,493.32,1012,499.36,1012,507.24ZM507.24,12h23.61c7.88,0,13.09,6.81,9.64,14.33l-8.24,17.92c-3.45,7.51-12.34,15.52-20.2,15.52H490.82c-7.86,0-10-5.31-7.27-13.15l7.05-20.29C493.32,18.5,499.36,12,507.24,12Zm9.52,1000H493.15c-7.88,0-13.09-6.81-9.64-14.33l8.24-17.92c3.45-7.51,12.34-15.52,20.2-15.52h21.23c7.86,0,10,5.31,7.27,13.15l-7.05,20.29C530.68,1005.5,524.64,1012,516.76,1012ZM161.81,868.92l-16.69-16.69c-5.57-5.58-4.44-14.08,3.32-17l18.49-6.85c7.75-2.87,19.7-2.25,25.26,3.31l15,15c5.56,5.55,3.31,10.81-4.16,14.43l-19.33,9.36c-7.46,3.62-16.33,3.94-21.9-1.63ZM862.19,155.08l16.69,16.69c5.57,5.58,4.44,14.08-3.32,16.95l-18.49,6.85c-7.75,2.87-19.7,2.25-25.26-3.32l-15-15c-5.56-5.57-3.31-10.82,4.16-14.44l19.33-9.36c7.46-3.62,16.32-3.94,21.9,1.63Zm-707.11,6.73,16.69-16.69c5.58-5.57,14.08-4.44,16.95,3.32l6.85,18.49c2.87,7.75,2.25,19.7-3.31,25.26l-15,15c-5.56,5.56-10.82,3.31-14.44-4.16l-9.36-19.33c-3.62-7.46-3.94-16.33,1.63-21.9ZM868.92,862.19l-16.69,16.69c-5.58,5.57-14.08,4.44-17-3.31l-6.85-18.5c-2.87-7.75-2.25-19.7,3.31-25.26l15-15c5.56-5.56,10.81-3.31,14.43,4.16l9.36,19.33C874.17,847.75,874.49,856.61,868.92,862.19ZM211.39,911.57l-18.72-14.36c-6.25-4.8-6.25-13.38,1.07-17.24l17.45-9.21c7.31-3.86,19.23-4.8,25.47,0l16.84,12.92c6.24,4.79,4.69,10.3-2.23,14.86l-18,11.81c-6.93,4.55-15.67,6-21.93,1.24ZM812.6,112.43l18.73,14.36c6.26,4.8,6.24,13.38-1.07,17.24l-17.45,9.21c-7.31,3.85-19.23,4.79-25.47,0L770.5,140.32c-6.24-4.78-4.69-10.29,2.23-14.84l17.95-11.82c6.93-4.55,15.67-6,21.92-1.23Zm-700.17,99,14.36-18.72c4.81-6.26,13.39-6.25,17.24,1.07l9.21,17.45c3.86,7.31,4.8,19.23,0,25.47L140.33,253.5c-4.79,6.24-10.3,4.69-14.86-2.23l-11.8-18c-4.56-6.93-6-15.67-1.24-21.93ZM911.57,812.6l-14.36,18.73c-4.8,6.26-13.38,6.24-17.24-1.07l-9.21-17.45c-3.85-7.31-4.79-19.23,0-25.47l12.93-16.84c4.78-6.24,10.29-4.69,14.84,2.23l11.82,17.95c4.55,6.93,6,15.67,1.23,21.92ZM582,1007.1l-23.4,3.08c-7.82,1-13.87-5-11.43-12.94L553,978.39c2.44-7.9,10.21-17,18-18l21-2.77c7.79-1,10.59,4,8.92,12.08l-4.34,21c-1.68,8.13-6.82,15.35-14.63,16.38ZM442,16.9l23.4-3.08c7.81-1,13.87,5,11.43,13L471,45.61c-2.44,7.9-10.21,17-18,18L432,66.4c-7.79,1-10.59-4-8.92-12.08l4.34-21c1.68-8.12,6.81-15.35,14.63-16.38ZM16.9,582l-3.08-23.4c-1-7.82,5.05-13.87,13-11.43L45.61,553c7.9,2.44,17,10.21,18,18l2.77,21c1,7.79-4,10.59-12.08,8.92l-21-4.34c-8.13-1.68-15.35-6.82-16.38-14.63Zm990.2-140,3.08,23.4c1,7.81-5,13.87-12.95,11.43L978.39,471c-7.9-2.44-17-10.21-18-18l-2.77-21c-1-7.79,4-10.59,12.08-8.92l21,4.34c8.12,1.68,15.35,6.81,16.38,14.63ZM81.37,766.12l-11.8-20.44c-3.94-6.83-.66-14.75,7.58-15.51l19.64-1.83c8.23-.77,19.61,2.93,23.54,9.74l10.61,18.38c3.94,6.81.4,11.3-7.74,12.86l-21.11,4c-8.14,1.56-16.78-.42-20.72-7.25ZM942.63,257.88l11.81,20.44c3.93,6.83.65,14.75-7.59,15.52l-19.64,1.82c-8.23.77-19.61-2.93-23.54-9.74l-10.61-18.38c-3.93-6.81-.4-11.3,7.74-12.86l21.1-4.05c8.15-1.56,16.79.42,20.73,7.25ZM257.88,81.37l20.44-11.8c6.83-3.94,14.75-.65,15.52,7.58l1.82,19.64c.77,8.23-2.93,19.61-9.74,23.54l-18.38,10.61c-6.81,3.94-11.3.4-12.86-7.74l-4.05-21.1c-1.56-8.15.42-16.79,7.25-20.73ZM766.12,942.63l-20.44,11.81c-6.82,3.93-14.75.65-15.52-7.59l-1.82-19.64c-.77-8.23,2.93-19.61,9.74-23.54l18.38-10.61c6.81-3.93,11.3-.4,12.86,7.74l4,21.1c1.56,8.15-.42,16.79-7.25,20.73ZM387.19,996.2l-22.8-6.12c-7.61-2-10.89-10-5.61-16.33l12.59-15.18c5.28-6.36,15.94-11.79,23.54-9.76l20.5,5.5c7.6,2,8.28,7.71,3.62,14.57L407,986.66C402.31,993.52,394.8,998.23,387.19,996.2ZM636.81,27.81l22.8,6.11c7.62,2,10.89,10,5.61,16.33l-12.6,15.18c-5.28,6.36-15.93,11.79-23.53,9.76l-20.5-5.49c-7.59-2-8.27-7.72-3.62-14.58L617,37.34c4.66-6.86,12.17-11.57,19.78-9.53ZM27.8,387.19l6.12-22.8c2-7.61,10-10.89,16.33-5.61l15.18,12.59c6.36,5.28,11.79,15.94,9.76,23.54l-5.49,20.5c-2,7.6-7.72,8.28-14.58,3.62L37.34,407c-6.86-4.66-11.57-12.17-9.54-19.78ZM996.2,636.81l-6.12,22.8c-2,7.62-10,10.89-16.33,5.61l-15.18-12.6c-6.36-5.28-11.79-15.93-9.76-23.53l5.49-20.5c2-7.59,7.72-8.27,14.58-3.62L986.66,617c6.86,4.66,11.57,12.17,9.54,19.78Z" transform="translate(-11.5 -11.5)"/><path class="b" d="M812.42,226.71V340.07c-16.72-34.22-36.3-63.5-60.89-85.18a163,163,0,0,0-84.7-38.66c-69.5-9.8-124.56,25.7-158.44,76.16l-8.52-21.64-8.52-21.64c41.43-22.24,84.18-37.22,129.75-40.07s94,6.43,146.72,32.69c8.68,4.32,14.36,7.79,19.38,8.18s9.38-2.3,15.43-10.27l4.89-6.47,4.9-6.46Z" transform="translate(-11.5 -11.5)"/><path class="b" d="M719,489.22H864.2c-19.73,7.47-34.23,16.19-37.61,35.93V645.38c-46.13,25.87-99.31,47.14-136,45.16,41.07-12.79,74-32.94,72.29-79.33V540.05c-1.53-27.83-21-41.33-43.85-50.83Z" transform="translate(-11.5 -11.5)"/><path class="c" d="M376.56,328c-45.91,106.64-60.47,145.26-80.87,195.82,47-39.29,101.09-65.59,162.94-75.65L342.15,167.72,475.21,445.91q7.14-.81,14.4-1.34L348.09,148.71h44.6l122.47,294.9a437.44,437.44,0,0,1,88.2,9.06,562.84,562.84,0,0,0-81.59,6.85L686.54,856.28,498.81,463.8q-6.88,1.47-13.55,3.11L680.61,875.29H636L468.28,471.44C371.7,499.33,306.34,555.73,254,623.53l-2,4.55c-6.68,15.44-10.08,26.93-10.08,34.63,0,22.5,33.55,23.83,48.74,24.93v10.82H159.8V687.64c41.33-7.42,54.43-30.06,70.58-68.67l129.76-310.1L376.56,328Z" transform="translate(-11.5 -11.5)"/><path class="d" d="M512,69.34A442.72,442.72,0,1,1,199,199,441.27,441.27,0,0,1,512,69.34Zm307.06,135.6A434.2,434.2,0,1,0,946.27,512,432.92,432.92,0,0,0,819.06,204.94Z" transform="translate(-11.5 -11.5)"/></svg>