<?xml version="1.0" encoding="utf-8"?>
<!-- Generator: Adobe Illustrator 24.1.1, SVG Export Plug-In . SVG Version: 6.00 Build 0)  -->
<svg version="1.1" id="Layer_1" xmlns="http://www.w3.org/2000/svg" xmlns:xlink="http://www.w3.org/1999/xlink" x="0px" y="0px"
	 viewBox="0 0 591 591" style="enable-background:new 0 0 591 591;" xml:space="preserve">
<style type="text/css">
	.st0{fill:#000000;}
</style>
<g id="surface1">
	<path class="st0" d="M11.1,163.3c-0.2,1.2-0.3,2.4-0.4,3.5v24.3c0,10,6.4,19,16,22.5v35.8c0,12,9.7,21.8,21.9,22.4v206.6
		c-12.2,0.6-21.8,10.4-21.9,22.4v35.7c-9.6,3.6-15.9,12.6-16,22.7v23.8c0,4.4,3.7,8,8.2,8h552.8c4.5,0,8.2-3.6,8.2-8v-23.8
		c0-10.1-6.4-19.1-16-22.7v-35.9c0-12-9.7-21.8-21.9-22.4V271.8c12.2-0.6,21.8-10.4,21.9-22.4v-35.8c9.6-3.5,15.9-12.5,16-22.5V167
		c0-1.2-0.2-2.4-0.4-3.5c4.1,1.8,8.9,0,10.8-4.1c1.8-4,0-8.8-4.1-10.5L299.1,1c-2.4-1.2-5.3-1.2-7.7,0L4.4,148.7
		c-4,2.1-5.5,6.9-3.4,10.9C2.9,163.1,7.2,164.7,11.1,163.3z M43.1,227.5v-12.4h94.5v12.3L43.1,227.5z M253.6,271.8v206.6
		c-12.2,0.6-21.8,10.4-21.9,22.4v34.2h-77.8v-34.2c0-12-9.7-21.8-21.9-22.4V271.8c12.2-0.6,21.8-10.4,21.9-22.4v-34.2h77.7v34.2
		c0,12,9.6,21.9,21.9,22.4L253.6,271.8z M248.1,227.5v-12.4h94.5v12.3L248.1,227.5z M458.6,271.8v206.6
		c-12.2,0.6-21.8,10.4-21.9,22.4v34.2h-77.8v-34.2c0-12-9.7-21.8-21.9-22.4V271.8c12.2-0.6,21.8-10.4,21.9-22.4v-34.2h77.7v34.2
		c0,12,9.6,21.9,21.9,22.4L458.6,271.8z M453.1,227.5v-12.4h94.5v12.3L453.1,227.5z M547.7,522.6v12.3H453v-12.3H547.7z
		 M342.6,522.6v12.3H248v-12.3H342.6z M261.7,255.9h-7.1c-3.6,0-6.6-2.9-6.6-6.4v-5.8h94.5v5.8c0,3.5-2.9,6.4-6.6,6.4H261.7z
		 M320.7,271.9v206.3h-50.9V271.9H320.7z M261.7,494.3H336c3.6,0,6.6,2.9,6.6,6.4v5.8H248v-5.8c0-3.5,2.9-6.4,6.6-6.4H261.7z
		 M137.5,522.6v12.3H43v-12.3H137.5z M43,249.6v-6h94.5v5.8c0,3.5-2.9,6.4-6.6,6.4H49.4c-3.6-0.1-6.4-3-6.4-6.5V249.6z M115.6,272.1
		v206.2H64.8V271.9L115.6,272.1z M43,500.9c0-3.6,2.9-6.4,6.6-6.4h81.4c3.6,0,6.6,2.9,6.6,6.4v5.8H43V500.9z M563.5,559.4v15.7H27
		v-15.7c0-4.6,3.8-8.3,8.5-8.3h519.6c4.6,0,8.4,3.6,8.5,8.1V559.4z M547.6,500.9v5.8H453v-5.8c0-3.6,2.9-6.4,6.6-6.4h81.6
		c3.5,0.1,6.3,2.8,6.4,6.3V500.9z M474.9,478.4V271.9h50.9v206.3L474.9,478.4z M547.6,249.6c0,3.5-2.9,6.4-6.6,6.4h-81.4
		c-3.6,0-6.6-2.9-6.6-6.4v-6h94.5L547.6,249.6z M295.3,17.1l244.1,125.7H51.2L295.3,17.1z M27,167c0-4.4,3.7-8,8.2-8h520.1
		c4.5,0,8.2,3.6,8.2,8v24.3c0,4.4-3.7,8-8.2,8H35.2c-4.5,0-8.2-3.6-8.2-8V167z"/>
</g>
</svg>
