<svg id="Layer_1" data-name="Layer 1" xmlns="http://www.w3.org/2000/svg" viewBox="0 0 359.34882 69.3559"><defs><style>.cls-1{fill:#4e2e24;}.cls-1,.cls-2,.cls-3{fill-rule:evenodd;}.cls-2{fill:#fff;}.cls-3,.cls-4{fill:#663534;}</style></defs><path id="path56" class="cls-1" d="M36.44557,25.349c-3.18466,7.39569-4.19422,10.0743-5.60892,13.58108a23.2053,23.2053,0,0,1,11.30079-5.24686l-8.07878-19.453,9.229,19.2941q.49448-.056.9983-.09274L34.47069,12.91195h3.09347L46.058,33.3647a30.335,30.335,0,0,1,6.11753.62887,38.9643,38.9643,0,0,0-5.65916.47507l11.428,27.51753L44.92381,34.76551q-.47661.10123-.93935.21528L57.53265,63.30457H54.43883L42.80666,35.2949c-6.69861,1.93457-11.23148,5.84638-14.86415,10.54839l-.13625.31566a6.86879,6.86879,0,0,0-.69935,2.40219c0,1.56041,2.32752,1.65251,3.38086,1.729V51.04H21.412v-.74986c2.86619-.51469,3.77465-2.08517,4.89495-4.76306l8.9996-21.507L36.4456,25.349Z" transform="translate(-11.16094 -3.43026)"/><path id="path58" class="cls-2" d="M60.19562,36.52853H70.26585c-1.3681.518-2.37411,1.12238-2.60811,2.49148v8.33886c-3.19937,1.79394-6.88792,3.26933-9.43454,3.13207,2.84839-.88731,5.13059-2.28446,5.01341-5.50183V40.05356c-.10583-1.92993-1.45249-2.86665-3.041-3.525Z" transform="translate(-11.16094 -3.43026)"/><path id="path60" class="cls-2" d="M66.67458,18.32184v7.86224A18.65355,18.65355,0,0,0,62.452,20.27639a11.30226,11.30226,0,0,0-5.87444-2.6817c-4.82046-.67982-8.63962,1.78232-10.989,5.28237l-.591-1.50062-.59063-1.5009a21.83942,21.83942,0,0,1,8.99879-2.77936,19.71165,19.71165,0,0,1,10.17577,2.26748,4.52709,4.52709,0,0,0,1.34385.56692c.34818.02707.65066-.15905,1.07015-.71244l.33963-.44828.33936-.448Z" transform="translate(-11.16094 -3.43026)"/><path id="path62" class="cls-1" d="M45.83888,7.40746a30.70457,30.70457,0,1,1-21.70757,8.99316A30.60554,30.60554,0,0,1,45.83888,7.40746ZM67.1355,16.81158A30.11482,30.11482,0,1,0,75.95815,38.1082,30.02644,30.02644,0,0,0,67.1355,16.81158Z" transform="translate(-11.16094 -3.43026)"/><path id="path64" class="cls-1" d="M41.63975,72.53253l-1.62327-.21373a.68364.68364,0,0,1-.533-1.07243l.72852-1.15773a1.84648,1.84648,0,0,1,1.52943-.8842l1.45975.19239c.54076.071.63885.45518.38079.96942l-.66837,1.33148A1.31776,1.31776,0,0,1,41.63975,72.53253ZM50.03783,3.684l1.62317.21347a.68395.68395,0,0,1,.5333,1.07269l-.72842,1.15763a1.84584,1.84584,0,0,1-1.52979.884l-1.45975-.19212c-.54048-.07131-.63859-.45554-.38052-.96951l.6682-1.33168A1.3175,1.3175,0,0,1,50.03783,3.684ZM11.41464,33.90906l.21364-1.62327a.68383.68383,0,0,1,1.07252-.53322l1.15762.7287a1.84623,1.84623,0,0,1,.88422,1.52953l-.19231,1.45966c-.07131.54076-.45554.63859-.96951.38088l-1.33149-.66847a1.31728,1.31728,0,0,1-.83471-1.27381Zm68.84855,8.39808-.21373,1.62317a.68371.68371,0,0,1-1.07243.5333l-1.15773-.72842a1.846,1.846,0,0,1-.88395-1.52979l.192-1.45975c.07113-.54038.45527-.63877.9695-.38051l1.33176.66819a1.31765,1.31765,0,0,1,.83452,1.27381ZM67.21115,65.419l-1.29852.99675a.68413.68413,0,0,1-1.13574-.38161l-.3034-1.33359A1.847,1.847,0,0,1,64.93,62.99367l1.16826-.896c.43231-.33218.77347-.12981.95452.41613l.46891,1.41434A1.317,1.317,0,0,1,67.21115,65.419ZM24.46659,10.79715l1.29879-.99649a.68367.68367,0,0,1,1.13528.38161l.30358,1.3335a1.8465,1.8465,0,0,1-.45655,1.70665l-1.16826.89638c-.43256.33182-.77348.12944-.95451-.4164l-.46917-1.41415a1.31761,1.31761,0,0,1,.31084-1.49109ZM18.528,59.48047l-.99666-1.29869a.684.684,0,0,1,.38133-1.13555l1.3335-.3033a1.84651,1.84651,0,0,1,1.70692.45646l.89639,1.168c.3321.43265.12944.77376-.41613.95478l-1.41442.46891a1.31709,1.31709,0,0,1-1.49091-.31057ZM73.14973,16.73562l.99647,1.29907A.68365.68365,0,0,1,73.76487,19.17l-1.33359.3033a1.84688,1.84688,0,0,1-1.70692-.45628l-.896-1.16826c-.3319-.43256-.12982-.77348.41613-.95451l1.41434-.46909a1.3176,1.3176,0,0,1,1.49091.31048Zm-44.364,51.5696-1.4177-.81853a.684.684,0,0,1-.08238-1.19523l1.11621-.79056a1.84561,1.84561,0,0,1,1.75143-.23144l1.27509.73614c.47226.27269.41585.66539-.01925,1.04135l-1.12711.9746a1.3175,1.3175,0,0,1-1.49627.28367ZM62.892,7.91116l1.41779.81853a.684.684,0,0,1,.08211,1.19505l-1.116.79074a1.84684,1.84684,0,0,1-1.75171.23126l-1.27509-.73623c-.47226-.2727-.41584-.66511.01935-1.04127l1.127-.9746A1.3177,1.3177,0,0,1,62.892,7.91113ZM15.64183,21.055l.81853-1.4177a.68387.68387,0,0,1,1.19506-.08239l.79073,1.11622a1.84712,1.84712,0,0,1,.23146,1.75143l-.73614,1.27508c-.27269.47226-.66538.41585-1.04127-.01925l-.9746-1.12711a1.31755,1.31755,0,0,1-.28377-1.49627Zm60.39408,34.1063-.81853,1.41778a.684.684,0,0,1-1.19507.08211l-.79075-1.11592a1.84793,1.84793,0,0,1-.23144-1.75179l.73614-1.27509c.273-.47218.66539-.41585,1.04154.01935l.97441,1.127a1.318,1.318,0,0,1,.28367,1.49655ZM55.13308,71.519l-1.58129.42375a.684.684,0,0,1-.90329-.78685l.23018-1.3482a1.84566,1.84566,0,0,1,1.07479-1.40234l1.42214-.38105c.52686-.14116.76449.17642.7228.75005l-.10792,1.486A1.31777,1.31777,0,0,1,55.13308,71.519ZM36.54477,4.69743,38.126,4.27358a.684.684,0,0,1,.90328.78693l-.23018,1.34821A1.84677,1.84677,0,0,1,37.724,7.811L36.302,8.19213c-.52658.14107-.7643-.17641-.72261-.75014L35.687,5.95581a1.31748,1.31748,0,0,1,.85778-1.25837Zm-24.11666,42.705-.42384-1.58157a.68383.68383,0,0,1,.78692-.903l1.34822.23a1.84682,1.84682,0,0,1,1.40225,1.075l.38106,1.42214c.14116.52686-.17632.76449-.75.7228l-1.486-.10792a1.31749,1.31749,0,0,1-1.25855-.85741Zm66.82162-18.5883.42358,1.58121a.6838.6838,0,0,1-.78665.90328l-1.3482-.23018a1.84637,1.84637,0,0,1-1.40234-1.07506l-.38106-1.42207c-.14115-.52685.17631-.7643.75006-.72251l1.486.10754a1.3179,1.3179,0,0,1,1.25863.85779ZM13.92692,51.68365l-.6265-1.51218a.684.684,0,0,1,.66229-.9983l1.36673.05223a1.84622,1.84622,0,0,1,1.53061.88266l.56337,1.36011c.20856.50387-.07521.78092-.64913.81445l-1.48755.087a1.31734,1.31734,0,0,1-1.35983-.686ZM77.75083,24.53248l.62651,1.51254a.68407.68407,0,0,1-.6623.9983L76.3483,26.991a1.846,1.846,0,0,1-1.53052-.88266l-.56347-1.36028c-.20857-.5037.07493-.78075.64921-.81446l1.48747-.08675A1.31722,1.31722,0,0,1,77.75083,24.53248ZM32.26344,6.19625l1.51225-.62642a.684.684,0,0,1,.9983.66221l-.05232,1.36683A1.846,1.846,0,0,1,33.839,9.12939l-1.36.56336c-.504.20857-.781-.0752-.81445-.64912l-.08711-1.48755a1.31734,1.31734,0,0,1,.686-1.35983ZM59.41461,70.02014l-1.51253.62651a.684.684,0,0,1-.99822-.66229l.05223-1.36675a1.84619,1.84619,0,0,1,.88266-1.53052l1.36038-.56338c.5036-.20866.78066.07485.81446.64912l.08675,1.48747A1.31743,1.31743,0,0,1,59.41461,70.02014Zm-26.54147.25263-1.51244-.6265A.68406.68406,0,0,1,31.123,68.4721l1.00348-.92952a1.84675,1.84675,0,0,1,1.70638-.4581l1.36038.56347c.50388.20882.499.60535.11682,1.03481l-.9903,1.1134a1.31785,1.31785,0,0,1-1.44659.47661ZM58.80463,5.94364l1.51253.6265a.68393.68393,0,0,1,.23737,1.17417l-1.00321.92953a1.84651,1.84651,0,0,1-1.70637.4581l-1.36029-.56337c-.504-.20884-.499-.60534-.1169-1.03509l.9903-1.1132a1.31791,1.31791,0,0,1,1.44659-.47663ZM13.67431,25.14246,14.30082,23.63a.68409.68409,0,0,1,1.17416-.23772l.92954,1.00348a1.84647,1.84647,0,0,1,.45809,1.70637l-.56336,1.36039c-.20884.50387-.60544.499-1.03491.1169L14.151,26.58914a1.31821,1.31821,0,0,1-.47662-1.44668ZM78.00346,51.074l-.6265,1.51253a.68392.68392,0,0,1-1.17417.23736l-.92952-1.00321a1.84654,1.84654,0,0,1-.4581-1.70637l.56347-1.36028c.20874-.504.60535-.49906,1.03508-.1169l1.11312.9903a1.31769,1.31769,0,0,1,.47662,1.44658ZM11.16094,38.43831V36.80124a.68393.68393,0,0,1,.99394-.66875l1.24265.57109a1.84651,1.84651,0,0,1,1.07634,1.40126v1.47237c0,.54539-.36825.69263-.91155.50388l-1.40743-.4887a1.31778,1.31778,0,0,1-.99393-1.15408Zm69.3559-.66021v1.63716a.68394.68394,0,0,1-.99395.66866l-1.24266-.57109a1.84634,1.84634,0,0,1-1.07634-1.40126V36.63928c0-.54539.36825-.69273.91156-.504l1.40744.4887A1.31778,1.31778,0,0,1,80.51684,37.7781ZM45.50879,3.43026H47.146a.68387.68387,0,0,1,.66866.99393l-.57109,1.24265a1.84615,1.84615,0,0,1-1.40126,1.07634H44.36988c-.54529,0-.69263-.36825-.50387-.91155l.4887-1.40743a1.31778,1.31778,0,0,1,1.15408-.99393ZM46.169,72.78615H44.53183a.684.684,0,0,1-.66865-.994l.57109-1.24266a1.84635,1.84635,0,0,1,1.40125-1.07634H47.3079c.54539,0,.69263.36825.50388.91156l-.4887,1.40744A1.31779,1.31779,0,0,1,46.169,72.78615ZM21.55127,62.86272,20.39355,61.705a.684.684,0,0,1,.23-1.17572l1.28253-.47481a1.84674,1.84674,0,0,1,1.752.22992l1.04109,1.04108c.3857.38541.22937.75005-.28813,1.00085L23.07,62.976a1.3176,1.3176,0,0,1-1.51871-.11327ZM70.1265,13.35377l1.15744,1.15763a.68375.68375,0,0,1-.22972,1.17553l-1.28281.47507a1.84639,1.84639,0,0,1-1.75171-.23l-1.041-1.041c-.3858-.38578-.22945-.75014.28814-1.00093l1.34077-.64958a1.31772,1.31772,0,0,1,1.51888.11327Zm-49.042.46682L22.24209,12.663a.68393.68393,0,0,1,1.1757.2299l.47481,1.28253a1.84658,1.84658,0,0,1-.2299,1.752l-1.041,1.04108c-.38551.38571-.75014.22937-1.00094-.28813l-.64958-1.341a1.31746,1.31746,0,0,1,.11327-1.51872ZM70.59332,62.39581l-1.15764,1.15745a.68369.68369,0,0,1-1.17544-.22965l-.47509-1.28289a1.84642,1.84642,0,0,1,.22992-1.75171l1.04108-1.041c.38568-.3858.75005-.22945,1.00085.28814l.64968,1.34077A1.31778,1.31778,0,0,1,70.59332,62.39581ZM24.99011,65.821l-1.29879-.99647a.6839.6839,0,0,1,.07439-1.19559l1.21-.63832a1.84551,1.84551,0,0,1,1.7666-.00091l1.168.89629c.43284.33218.32548.71379-.15469,1.03l-1.24475.81908a1.31789,1.31789,0,0,1-1.52071.086ZM66.6875,10.39546l1.2988.99649a.68374.68374,0,0,1-.07449,1.19551l-1.20968.63831a1.84667,1.84667,0,0,1-1.76659.00082l-1.168-.89639c-.43284-.33192-.32574-.71371.1547-1.02973L65.167,10.4812a1.31779,1.31779,0,0,1,1.52053-.08575ZM18.12617,17.2594l.99648-1.29878a.68383.68383,0,0,1,1.19551.07439l.63831,1.20995a1.84566,1.84566,0,0,1,.00092,1.7667l-.89629,1.168c-.3322.43284-.7138.32547-1.03-.15478L18.212,18.78011a1.31776,1.31776,0,0,1-.08594-1.52071ZM73.55172,58.95681l-.99647,1.2988a.68384.68384,0,0,1-1.1956-.0744l-.63831-1.20976a1.84636,1.84636,0,0,1-.00072-1.7666l.89629-1.168c.3319-.43285.71379-.32576,1.02973.15479l.81936,1.24466a1.318,1.318,0,0,1,.08574,1.52052ZM50.69261,72.44623l-1.62317.214a.68407.68407,0,0,1-.79283-.89811l.40423-1.30679a1.84632,1.84632,0,0,1,1.24856-1.24993l1.45975-.192c.54076-.0713.73488.27441.61878.8376l-.301,1.45947a1.31724,1.31724,0,0,1-1.0143,1.13574ZM40.98519,3.77017l1.62327-.21374a.68373.68373,0,0,1,.79255.89792l-.404,1.30678A1.84584,1.84584,0,0,1,41.74814,7.011l-1.45975.19212c-.54039.07131-.7346-.27451-.61842-.83788L39.97073,4.906a1.31763,1.31763,0,0,1,1.01448-1.13583ZM11.50086,42.96192l-.21392-1.62317a.6841.6841,0,0,1,.8981-.79283l1.30678.40423a1.846,1.846,0,0,1,1.24983,1.24856l.19213,1.45975c.07131.54076-.27451.73488-.83762.61878l-1.45948-.301a1.31727,1.31727,0,0,1-1.13583-1.0143ZM80.17692,33.2545l.21373,1.62327a.68373.68373,0,0,1-.89792.79255l-1.3067-.404a1.84615,1.84615,0,0,1-1.24993-1.24883l-.192-1.45967c-.07141-.54048.27441-.7347.83787-.6185l1.45923.30076a1.31762,1.31762,0,0,1,1.13574,1.01448ZM15.972,55.733l-.81852-1.41779a.6838.6838,0,0,1,.52631-1.076l1.36184-.12672a1.84573,1.84573,0,0,1,1.63253.67538l.73614,1.27508c.273.47228.02752.78384-.53712.892l-1.46357.2806A1.31743,1.31743,0,0,1,15.972,55.733ZM75.70583,20.48342l.81864,1.4178a.684.684,0,0,1-.52632,1.07606l-1.36192.12671a1.84678,1.84678,0,0,1-1.6327-.67547l-.73623-1.27509c-.27241-.47226-.02752-.78383.53741-.89219l1.46338-.28042a1.31775,1.31775,0,0,1,1.43777.5026ZM28.21411,8.24128l1.4178-.81853a.6839.6839,0,0,1,1.076.52632l.12664,1.36184a1.84563,1.84563,0,0,1-.67538,1.63252l-1.27508.73614c-.47226.273-.78384.02753-.89194-.53711l-.28069-1.46358a1.31758,1.31758,0,0,1,.5026-1.43759ZM63.4637,67.97514l-1.41779.81864a.684.684,0,0,1-1.07606-.52632l-.12663-1.36192a1.84672,1.84672,0,0,1,.67537-1.6327l1.27509-.73614c.47226-.27242.78383-.02761.89219.53729l.28042,1.46338a1.31762,1.31762,0,0,1-.5026,1.43777ZM37.18257,71.69l-1.58147-.42386a.68393.68393,0,0,1-.38888-1.13291l.87341-1.05264a1.84605,1.84605,0,0,1,1.63226-.67673l1.42214.38089c.52658.14135.57374.53477.2508,1.01083l-.83634,1.23321A1.318,1.318,0,0,1,37.18257,71.69ZM54.49525,4.5265l1.58157.42376a.68382.68382,0,0,1,.38852,1.133l-.8734,1.05262a1.84545,1.84545,0,0,1-1.632.67665l-1.42214-.38079c-.52658-.14134-.57364-.53486-.2508-1.01093l.83634-1.23311a1.3179,1.3179,0,0,1,1.37192-.66121ZM12.2571,29.45188l.42385-1.58147a.684.684,0,0,1,1.133-.38887l1.05262.87348a1.846,1.846,0,0,1,.67665,1.63216l-.38079,1.42215c-.14134.52658-.53486.57373-1.01093.25079l-1.23312-.83633a1.318,1.318,0,0,1-.66129-1.37192ZM79.42071,46.76456l-.42386,1.58158a.68375.68375,0,0,1-1.13291.38851l-1.05272-.8734a1.84562,1.84562,0,0,1-.67665-1.632l.38078-1.42215c.14143-.5265.53485-.57364,1.01094-.2508l1.23313.83634a1.318,1.318,0,0,1,.66129,1.37192Z" transform="translate(-11.16094 -3.43026)"/><path id="path26" class="cls-3" d="M112.759,42.4343a7.975,7.975,0,0,1,.29623,1.18072.73706.73706,0,0,1-.16161.65019,1.21283,1.21283,0,0,1-.76771.26845c-.37062.03537-.87557.05664-1.52217.0566-.66642-.00005-1.19175-.01429-1.56905-.03561a4.10079,4.10079,0,0,1-.85526-.12025.79851.79851,0,0,1-.41756-.26134,1.63174,1.63174,0,0,1-.19518-.4383l-1.71694-5.37942-9.58949-.00063L94.64362,43.5925a1.76866,1.76866,0,0,1-.20887.48759.863.863,0,0,1-.41074.31117,3.14973,3.14973,0,0,1-.808.15525q-.52548.04257-1.37382.04251a12.21176,12.21176,0,0,1-1.42109-.06389,1.02506,1.02506,0,0,1-.707-.30394.81812.81812,0,0,1-.14152-.6715,7.41064,7.41064,0,0,1,.29638-1.15908l7.87421-23.77089a2.2027,2.2027,0,0,1,.276-.57259,1.03209,1.03209,0,0,1,.50505-.33216,4.06835,4.06835,0,0,1,.95626-.14134c.404-.021.94959-.03514,1.61631-.0351.77429,0,1.39385.0143,1.85858.03532a5.07706,5.07706,0,0,1,1.07085.14148.99813.99813,0,0,1,.55229.34644,1.93278,1.93278,0,0,1,.2894.62192l7.89114,23.75061ZM101.03573,22.78323h-.0203L97.40528,34.17029l7.2394.00048Zm33.93949,20.87543a.81321.81321,0,0,1-.10778.4031.84973.84973,0,0,1-.41751.28968,3.6688,3.6688,0,0,1-.84185.17655,11.54964,11.54964,0,0,1-1.34.06371,11.21749,11.21749,0,0,1-1.84506-.10622,1.7996,1.7996,0,0,1-.80826-.311,1.5846,1.5846,0,0,1-.38381-.495l-7.71-12.71671-.00082,12.7162a.63159.63159,0,0,1-.1213.389.87752.87752,0,0,1-.41751.28257,3.36722,3.36722,0,0,1-.78782.17655,10.15786,10.15786,0,0,1-1.25933.06372,10.26925,10.26925,0,0,1-1.25254-.06388,3.42077,3.42077,0,0,1-.80153-.17666.98.98,0,0,1-.42433-.28262.59766.59766,0,0,1-.12764-.389l.00163-25.2484a.59722.59722,0,0,1,.12769-.38889.85684.85684,0,0,1,.42437-.26846,3.876,3.876,0,0,1,.80155-.16975,10.33159,10.33159,0,0,1,1.25255-.06343,10.22436,10.22436,0,0,1,1.25932.06359,3.82071,3.82071,0,0,1,.7878.16985.77647.77647,0,0,1,.41747.26853.631.631,0,0,1,.12125.3889L121.521,29.846l7.47585-11.3937a1.56967,1.56967,0,0,1,.3368-.44528,1.49513,1.49513,0,0,1,.51174-.27577,3.5197,3.5197,0,0,1,.80812-.14844c.32994-.02809.74752-.04225,1.266-.04222a10.9595,10.9595,0,0,1,1.29991.06359,3.55007,3.55007,0,0,1,.81475.177.83663.83663,0,0,1,.42425.28262.59866.59866,0,0,1,.12125.36772,1.72238,1.72238,0,0,1-.175.72789c-.12129.24749-.34359.64318-.67366,1.18036l-7.00422,9.62685,7.63589,12.116a8.25884,8.25884,0,0,1,.51839,1.13083,1.52157,1.52157,0,0,1,.09421.44531ZM153.25966,36.429a8.68452,8.68452,0,0,1-.74784,3.71075,7.58114,7.58114,0,0,1-2.034,2.65767,8.67527,8.67527,0,0,1-2.9968,1.60451,13.06372,13.06372,0,0,1-6.12827.3105,13.32751,13.32751,0,0,1-2.00011-.54434,8.63452,8.63452,0,0,1-1.45449-.6787,3.97842,3.97842,0,0,1-.835-.62225,1.49561,1.49561,0,0,1-.36371-.77051,7.35258,7.35258,0,0,1-.10766-1.46292c0-.4312.01349-.7847.0338-1.0747a3.64576,3.64576,0,0,1,.12809-.7066.79056.79056,0,0,1,.24222-.38188.52081.52081,0,0,1,.34356-.11307,1.61981,1.61981,0,0,1,.78131.33934,12.43307,12.43307,0,0,0,1.29271.75639,11.23877,11.23877,0,0,0,1.87883.75673,8.62378,8.62378,0,0,0,2.5388.33917,5.69928,5.69928,0,0,0,1.69712-.23289,3.84647,3.84647,0,0,0,1.27289-.67852,2.82259,2.82259,0,0,0,.79483-1.07455,3.51485,3.51485,0,0,0,.2761-1.42778,2.56927,2.56927,0,0,0-.47141-1.56193,4.65394,4.65394,0,0,0-1.23226-1.15948,12.64682,12.64682,0,0,0-1.72371-.95421c-.64649-.29715-1.3133-.61529-1.99352-.94044a18.03949,18.03949,0,0,1-1.9933-1.13113,8.38339,8.38339,0,0,1-1.73044-1.51271,7.24225,7.24225,0,0,1-1.23221-2.07818,7.85944,7.85944,0,0,1-.47132-2.88393,7.99337,7.99337,0,0,1,.68045-3.38565,6.78535,6.78535,0,0,1,1.83854-2.41728,7.65758,7.65758,0,0,1,2.72069-1.44182,11.36706,11.36706,0,0,1,3.327-.47348,11.23865,11.23865,0,0,1,1.81133.14161,11.62412,11.62412,0,0,1,1.69708.39582,9.28627,9.28627,0,0,1,1.40077.55849,3.17448,3.17448,0,0,1,.808.516,1.47955,1.47955,0,0,1,.2695.35352,1.81135,1.81135,0,0,1,.1145.38181,4.1272,4.1272,0,0,1,.074.6007c.00664.2404.01348.5443.01346.9048,0,.39571-.00671.735-.02714,1.01089a3.96725,3.96725,0,0,1-.101.6857.73674.73674,0,0,1-.19523.38858.47341.47341,0,0,1-.34356.12728,1.63075,1.63075,0,0,1-.69348-.28975c-.31658-.19112-.7005-.40315-1.16505-.62938a9.7801,9.7801,0,0,0-1.59606-.6221,6.59483,6.59483,0,0,0-1.99327-.28272,4.40487,4.40487,0,0,0-1.47484.2191,2.95147,2.95147,0,0,0-1.05738.60053,2.3846,2.3846,0,0,0-.633.919,3.23654,3.23654,0,0,0-.20892,1.13779,2.61267,2.61267,0,0,0,.46475,1.548,4.636,4.636,0,0,0,1.2457,1.15947,12.08741,12.08741,0,0,0,1.7643.94721c.66.29705,1.32653.61519,2.01352.94743a21.12344,21.12344,0,0,1,2.01351,1.124,8.31629,8.31629,0,0,1,1.75074,1.51272,7.17932,7.17932,0,0,1,1.24564,2.07108,7.58539,7.58539,0,0,1,.47141,2.80633Zm23.89262,7.29626a.56435.56435,0,0,1-.128.36729.85469.85469,0,0,1-.42428.26877,3.83,3.83,0,0,1-.78782.16944,9.9964,9.9964,0,0,1-1.24578.06372,10.4745,10.4745,0,0,1-1.27284-.06389,3.73671,3.73671,0,0,1-.7881-.16954.8111.8111,0,0,1-.41069-.26883.566.566,0,0,1-.128-.3673l.0007-10.836-9.5492-.00063-.0007,10.836a.597.597,0,0,1-.1213.36729.77617.77617,0,0,1-.4175.26877,3.82824,3.82824,0,0,1-.78783.16944,10.1559,10.1559,0,0,1-1.25933.06372,10.26735,10.26735,0,0,1-1.25254-.06388,3.88665,3.88665,0,0,1-.80153-.16955.857.857,0,0,1-.42424-.26883.56524.56524,0,0,1-.12773-.3673l.00164-25.3123a.56605.56605,0,0,1,.12777-.36759.85661.85661,0,0,1,.42428-.26847,3.87634,3.87634,0,0,1,.80155-.16974,10.33177,10.33177,0,0,1,1.25256-.06343,10.22021,10.22021,0,0,1,1.25931.06359,3.81916,3.81916,0,0,1,.78781.16985.77615.77615,0,0,1,.41747.26852.59782.59782,0,0,1,.12125.36761l-.00064,9.8394,9.5492.00063.00064-9.8394a.5668.5668,0,0,1,.12806-.36759.811.811,0,0,1,.41073-.26847,3.72839,3.72839,0,0,1,.78812-.16975,10.54286,10.54286,0,0,1,1.27285-.06342,10.05769,10.05769,0,0,1,1.24577.06359,3.82071,3.82071,0,0,1,.7878.16985.85469.85469,0,0,1,.42425.26852.56519.56519,0,0,1,.12793.36761Zm26.47971-1.285a7.96118,7.96118,0,0,1,.29614,1.18072.73732.73732,0,0,1-.16152.65019,1.21309,1.21309,0,0,1-.76783.26845c-.37051.03537-.87557.05664-1.52208.0566-.66651,0-1.19175-.01429-1.56905-.03561a4.10182,4.10182,0,0,1-.85535-.12025.79822.79822,0,0,1-.41747-.26134,1.62893,1.62893,0,0,1-.19518-.4383l-1.71705-5.37942-9.58939-.00063-1.61673,5.2378a1.772,1.772,0,0,1-.20876.48758.86319.86319,0,0,1-.41085.31117,3.14782,3.14782,0,0,1-.808.15525q-.52536.04257-1.37382.04252a12.21543,12.21543,0,0,1-1.42109-.06389,1.02549,1.02549,0,0,1-.707-.30394.81859.81859,0,0,1-.14143-.67151,7.3912,7.3912,0,0,1,.29637-1.15908L188.616,18.62569a2.20622,2.20622,0,0,1,.276-.57259,1.03209,1.03209,0,0,1,.505-.33216,4.06936,4.06936,0,0,1,.95638-.14134c.404-.021.9495-.03514,1.6163-.0351.7743.00005,1.39386.0143,1.85859.03533a5.07551,5.07551,0,0,1,1.07076.14147.99786.99786,0,0,1,.55229.34644,1.93453,1.93453,0,0,1,.28948.62192l7.89115,23.75061ZM191.90862,22.7892h-.02021l-3.61016,11.38706,7.23932.00048Zm29.12613-2.88208a8.78881,8.78881,0,0,1-.0538,1.025,2.86948,2.86948,0,0,1-.1483.68569.949.949,0,0,1-.2426.38159.49729.49729,0,0,1-.33.12717l-6.39079-.00042-.0014,21.6015a.56437.56437,0,0,1-.128.36729.85463.85463,0,0,1-.42437.26877,3.88254,3.88254,0,0,1-.80126.16944,10.11237,10.11237,0,0,1-1.25255.06372,10.26723,10.26723,0,0,1-1.25254-.06388,3.91613,3.91613,0,0,1-.79484-.16955.79924.79924,0,0,1-.42425-.26883.56574.56574,0,0,1-.12773-.3673l.0014-21.6015-6.39777-.00042a.46138.46138,0,0,1-.32973-.12722.94612.94612,0,0,1-.24255-.38162,3.227,3.227,0,0,1-.14821-.68571c-.02676-.2826-.04691-.62191-.04689-1.025,0-.4099.02026-.7633.047-1.053a3.209,3.209,0,0,1,.1483-.69278.86832.86832,0,0,1,.24259-.37449.48283.48283,0,0,1,.32975-.11307l17.99407.00118a.52049.52049,0,0,1,.33.11312.8713.8713,0,0,1,.24255.37451,2.8633,2.8633,0,0,1,.1482.69281A9.31881,9.31881,0,0,1,221.03475,19.90712Zm32.62774,1.93193a9.18835,9.18835,0,0,1-.04731,1.0321,3.26392,3.26392,0,0,1-.14132.6925.78819.78819,0,0,1-.21553.36769.46247.46247,0,0,1-.303.09889,1.82155,1.82155,0,0,1-.82826-.36765,11.43,11.43,0,0,0-1.522-.8128,15.98974,15.98974,0,0,0-2.2561-.806,11.25063,11.25063,0,0,0-3.05061-.3749,8.025,8.025,0,0,0-3.35375.67839,7.213,7.213,0,0,0-2.56573,1.90122,8.5705,8.5705,0,0,0-1.63679,2.9616,12.03893,12.03893,0,0,0-.57244,3.82416,12.94344,12.94344,0,0,0,.57871,4.04315,8.297,8.297,0,0,0,1.62963,2.93341,6.76486,6.76486,0,0,0,2.5185,1.78137,8.425,8.425,0,0,0,3.23915.60121,7.40938,7.40938,0,0,0,1.71729-.20489,6.36191,6.36191,0,0,0,1.58262-.6221l.0004-6.21291-4.83519-.00032c-.2358,0-.42425-.15573-.55228-.46663a4.41773,4.41773,0,0,1-.1951-1.58351,7.96222,7.96222,0,0,1,.047-.9754,2.41016,2.41016,0,0,1,.14829-.629.86544.86544,0,0,1,.23582-.35338.47312.47312,0,0,1,.31652-.11307l8.6199.00056a1.3325,1.3325,0,0,1,.56553.11314,1.25556,1.25556,0,0,1,.431.33932,1.62594,1.62594,0,0,1,.28949.55132,2.68124,2.68124,0,0,1,.09448.735l-.00069,10.6665a2.70024,2.70024,0,0,1-.20235,1.08139,1.50906,1.50906,0,0,1-.84837.73505c-.431.18387-.963.36754-1.58939.56541-.633.19066-1.28629.3533-1.96666.49477-.67321.13405-1.36031.24-2.047.31087a20.60034,20.60034,0,0,1-2.08761.09877,15.3028,15.3028,0,0,1-5.475-.91937,11.015,11.015,0,0,1-4.08779-2.67217,11.70233,11.70233,0,0,1-2.56533-4.26238,17.112,17.112,0,0,1-.88871-5.71136,17.263,17.263,0,0,1,.95-5.90924,12.53565,12.53565,0,0,1,2.68068-4.45282,11.56066,11.56066,0,0,1,4.18886-2.806,14.75948,14.75948,0,0,1,5.47511-.96795,17.95426,17.95426,0,0,1,3.02366.2335,17.37057,17.37057,0,0,1,2.3773.57957,9.03717,9.03717,0,0,1,1.68351.73541,4.13081,4.13081,0,0,1,.936.68546,1.72653,1.72653,0,0,1,.39049.82012,8.04883,8.04883,0,0,1,.11442,1.56211ZM281.892,30.76841a20.75322,20.75322,0,0,1-.7882,5.95865,12.1565,12.1565,0,0,1-2.35056,4.46725,10.16978,10.16978,0,0,1-3.85215,2.79154,13.66743,13.66743,0,0,1-5.32037.96115,15.05352,15.05352,0,0,1-5.19861-.81324,8.942,8.942,0,0,1-3.69709-2.49534,10.84119,10.84119,0,0,1-2.22207-4.26965,22.50621,22.50621,0,0,1-.74034-6.12825,19.91506,19.91506,0,0,1,.79485-5.85265,12.1286,12.1286,0,0,1,2.3439-4.41765,10.23314,10.23314,0,0,1,3.85909-2.79894,13.56248,13.56248,0,0,1,5.33363-.968,14.97331,14.97331,0,0,1,5.12467.80623,8.95651,8.95651,0,0,1,3.70375,2.48114,10.94841,10.94841,0,0,1,2.24911,4.24134,21.08319,21.08319,0,0,1,.76036,6.03644Zm-5.44125.28935a21.61594,21.61594,0,0,0-.31626-3.84522,8.50306,8.50306,0,0,0-1.07744-2.96177,5.19033,5.19033,0,0,0-2.02024-1.90153,6.60992,6.60992,0,0,0-3.15805-.67881,6.244,6.244,0,0,0-3.19893.75629,6.09948,6.09948,0,0,0-2.06756,2.02125,8.69869,8.69869,0,0,0-1.11821,2.94773,19.04448,19.04448,0,0,0-.32349,3.57638,22.49394,22.49394,0,0,0,.31626,3.94442,8.7317,8.7317,0,0,0,1.06392,2.98977,4.96031,4.96031,0,0,0,2.01346,1.89452,6.83778,6.83778,0,0,0,3.17854.65761,6.28817,6.28817,0,0,0,3.192-.749,5.83556,5.83556,0,0,0,2.07451-2.02837,8.78628,8.78628,0,0,0,1.11126-2.98993,18.98028,18.98028,0,0,0,.33027-3.63337Zm23.832,11.14167a9.26073,9.26073,0,0,1-.04711,1.046,3.18581,3.18581,0,0,1-.14827.6999.84985.84985,0,0,1-.24926.40279.507.507,0,0,1-.34326.12728l-11.69761-.00077a1.57176,1.57176,0,0,1-1.09781-.40288,1.7001,1.7001,0,0,1-.44418-1.31472l.00157-24.3369a.56661.56661,0,0,1,.12778-.36759.85656.85656,0,0,1,.42428-.26847,3.87916,3.87916,0,0,1,.80155-.16974,10.33355,10.33355,0,0,1,1.25264-.06343,10.21879,10.21879,0,0,1,1.25923.06359,3.81935,3.81935,0,0,1,.7878.16985.79768.79768,0,0,1,.42425.26852.57292.57292,0,0,1,.13476.36761l-.00139,21.5589,8.02742.00053a.57366.57366,0,0,1,.34325.11312.8591.8591,0,0,1,.2492.37451,2.95445,2.95445,0,0,1,.14818.68571,9.16517,9.16517,0,0,1,.047,1.04621Zm24.2714-11.513a19.13308,19.13308,0,0,1-.923,6.305,10.76986,10.76986,0,0,1-2.63342,4.27623,10.42466,10.42466,0,0,1-4.16881,2.43123,19.60845,19.60845,0,0,1-5.85208.77722l-6.09457-.0004a1.57175,1.57175,0,0,1-1.09779-.40288,1.70011,1.70011,0,0,1-.44418-1.31472l.00151-23.3615a1.7,1.7,0,0,1,.44435-1.31467,1.57034,1.57034,0,0,1,1.09784-.40273l6.54582.00043a17.52039,17.52039,0,0,1,5.7915.84139,10.42482,10.42482,0,0,1,4.00683,2.48146,10.72038,10.72038,0,0,1,2.47785,4.07156,16.93763,16.93763,0,0,1,.84816,5.61236Zm-5.3673.18335a14.09478,14.09478,0,0,0-.424-3.54133,7.66027,7.66027,0,0,0-1.36686-2.83449,6.25483,6.25483,0,0,0-2.404-1.87325,9.26569,9.26569,0,0,0-3.8586-.67886l-2.61989-.00017-.00118,18.2296,2.7006.00018a9.84293,9.84293,0,0,0,3.58951-.57946A6.05,6.05,0,0,0,317.24,37.83925a7.6641,7.6641,0,0,0,1.46179-2.9123A15.1669,15.1669,0,0,0,319.18683,30.86977Z" transform="translate(-11.16094 -3.43026)"/><path id="path28" class="cls-2" d="M96.01419,58.8263a3.35387,3.35387,0,0,1-.148,1.03489,2.89925,2.89925,0,0,1-.41487.82256,2.71337,2.71337,0,0,1-.633.61086,3.54457,3.54457,0,0,1-.80813.42405,4.71182,4.71182,0,0,1-.94274.24313,7.10717,7.10717,0,0,1-1.11814.079l-2.71252-.00018a.62746.62746,0,0,1-.43882-.16131.67946.67946,0,0,1-.17793-.52592l.0006-9.3441a.6798.6798,0,0,1,.178-.52609.62718.62718,0,0,1,.43884-.161l2.56456.00017a6.54525,6.54525,0,0,1,1.58934.1668,3.05043,3.05043,0,0,1,1.09618.50067,2.19316,2.19316,0,0,1,.68428.84814,2.89642,2.89642,0,0,1,.23677,1.21012,2.67338,2.67338,0,0,1-.097.73218,2.189,2.189,0,0,1-.27472.625,2.082,2.082,0,0,1-.44723.49746,2.17505,2.17505,0,0,1-.60339.34776,2.63955,2.63955,0,0,1,.80266.29116,2.27127,2.27127,0,0,1,.63839.53443,2.51833,2.51833,0,0,1,.431.76624,2.887,2.887,0,0,1,.156.98391Zm-2.68248-4.51238a1.681,1.681,0,0,0-.0942-.5797,1.02713,1.02713,0,0,0-.2854-.42692,1.27382,1.27382,0,0,0-.47693-.263,2.66632,2.66632,0,0,0-.76751-.09055l-1.05057-.00007-.00018,2.7822,1.161.00008a1.91928,1.91928,0,0,0,.71647-.11016,1.24853,1.24853,0,0,0,.44722-.30557,1.27262,1.27262,0,0,0,.26394-.45778,1.75937,1.75937,0,0,0,.08616-.54848Zm.5277,4.58874a1.73464,1.73464,0,0,0-.11858-.66731,1.27192,1.27192,0,0,0-.34457-.49493,1.6,1.6,0,0,0-.58467-.30533,3.30742,3.30742,0,0,0-.92385-.10747l-1.23092-.00008-.0002,3.04779,1.50015.0001a2.36815,2.36815,0,0,0,.73-.096,1.44444,1.44444,0,0,0,.51212-.27977,1.27852,1.27852,0,0,0,.33919-.46368,1.57183,1.57183,0,0,0,.12131-.63329Zm18.48678-.85289a5.22411,5.22411,0,0,1-.27746,1.76428,3.3651,3.3651,0,0,1-2.13884,2.13747,6.04235,6.04235,0,0,1-3.54214.02815,3.33927,3.33927,0,0,1-1.29576-.76629,3.40405,3.40405,0,0,1-.80794-1.28106,5.23,5.23,0,0,1-.28017-1.79243L104.0043,51.62a.23914.23914,0,0,1,.0486-.1469.29759.29759,0,0,1,.1696-.10739,1.65318,1.65318,0,0,1,.31782-.068,4.113,4.113,0,0,1,.50637-.02547,3.86212,3.86212,0,0,1,.4959.02553,1.60977,1.60977,0,0,1,.31782.068.34065.34065,0,0,1,.16958.10741.24146.24146,0,0,1,.05105.1469l-.00041,6.33031a3.66026,3.66026,0,0,0,.14818,1.10551,2.0744,2.0744,0,0,0,.431.77473,1.76059,1.76059,0,0,0,.67087.45816,2.38451,2.38451,0,0,0,.8725.15567,2.31487,2.31487,0,0,0,.87558-.15833,1.701,1.701,0,0,0,.65444-.46087,2.059,2.059,0,0,0,.41487-.74358,3.23217,3.23217,0,0,0,.14564-1.00649l.00042-6.4548a.239.239,0,0,1,.04859-.14689.3.3,0,0,1,.16416-.1074,1.59109,1.59109,0,0,1,.32059-.068,4.104,4.104,0,0,1,.50093-.02546,3.80766,3.80766,0,0,1,.49285.02552,1.58056,1.58056,0,0,1,.31249.068.30038.30038,0,0,1,.16444.10742.23831.23831,0,0,1,.0484.1469l-.00041,6.42919Zm14.16086,3.08283a3.75963,3.75963,0,0,1-.01889.41839,1.26338,1.26338,0,0,1-.05948.28.33711.33711,0,0,1-.09968.161.20213.20213,0,0,1-.13721.05108l-4.67911-.00031a.62744.62744,0,0,1-.43882-.16131.6795.6795,0,0,1-.17794-.52592l.00063-9.73441a.226.226,0,0,1,.05127-.14689.34105.34105,0,0,1,.16969-.1074,1.54912,1.54912,0,0,1,.3205-.068,4.10749,4.10749,0,0,1,.501-.02546,3.97046,3.97046,0,0,1,.5039.02553,1.52886,1.52886,0,0,1,.31487.068.31736.31736,0,0,1,.16988.10742.22792.22792,0,0,1,.05372.1469l-.00056,8.62329,3.21107.00021a.22945.22945,0,0,1,.1372.0453.34161.34161,0,0,1,.09966.15,1.17065,1.17065,0,0,1,.05944.27411,3.64355,3.64355,0,0,1,.01884.4184Zm13.1668.00086a3.73516,3.73516,0,0,1-.019.4184,1.27022,1.27022,0,0,1-.05936.28.33778.33778,0,0,1-.09968.161.2024.2024,0,0,1-.13721.05108l-4.67911-.00031a.62782.62782,0,0,1-.43891-.16132.67989.67989,0,0,1-.17793-.52592l.00063-9.7344a.2256.2256,0,0,1,.05135-.1469.34066.34066,0,0,1,.16961-.10739,1.54872,1.54872,0,0,1,.32058-.068,4.10587,4.10587,0,0,1,.50093-.02547,3.97136,3.97136,0,0,1,.5039.02553,1.52982,1.52982,0,0,1,.315.068.31821.31821,0,0,1,.16988.10741.22843.22843,0,0,1,.05372.1469l-.00055,8.6233,3.21106.00021a.22965.22965,0,0,1,.1372.04529.34241.34241,0,0,1,.09966.15,1.17593,1.17593,0,0,1,.05933.27412,3.641,3.641,0,0,1,.01893.41839Zm9.64042.61435a.22806.22806,0,0,1-.05374.14678.31683.31683,0,0,1-.16989.10738,1.52176,1.52176,0,0,1-.31489.0681,4.0681,4.0681,0,0,1-.504.02548,4.20721,4.20721,0,0,1-.50093-.02555,1.54071,1.54071,0,0,1-.32058-.06813.34062.34062,0,0,1-.16959-.10741.22576.22576,0,0,1-.05133-.14679l.00065-10.1248a.226.226,0,0,1,.05136-.14689.33544.33544,0,0,1,.175-.1074,1.5997,1.5997,0,0,1,.31782-.068,4.029,4.029,0,0,1,.49829-.02547,3.97252,3.97252,0,0,1,.504.02553,1.52889,1.52889,0,0,1,.31488.068.31788.31788,0,0,1,.16988.10742.22845.22845,0,0,1,.05372.1469Zm17.74384-5.18434a8.30021,8.30021,0,0,1-.31532,2.38339,4.862,4.862,0,0,1-.94017,1.78692,4.06836,4.06836,0,0,1-1.54081,1.11669,5.47117,5.47117,0,0,1-2.12814.38426,6.02189,6.02189,0,0,1-2.0795-.32524,3.57707,3.57707,0,0,1-1.47857-.9982,4.33327,4.33327,0,0,1-.88889-1.70766,9.00133,9.00133,0,0,1-.29614-2.45142,7.95824,7.95824,0,0,1,.31808-2.34078,4.85091,4.85091,0,0,1,.93749-1.76714,4.09358,4.09358,0,0,1,1.54349-1.11949,5.42653,5.42653,0,0,1,2.13346-.38716,5.9924,5.9924,0,0,1,2.04976.32243,3.58286,3.58286,0,0,1,1.48154.9925,4.37654,4.37654,0,0,1,.89947,1.69636,8.4335,8.4335,0,0,1,.30423,2.41453Zm-2.17641.11586a8.6232,8.6232,0,0,0-.12661-1.53811,3.39282,3.39282,0,0,0-.43093-1.18463,2.07314,2.07314,0,0,0-.808-.76055,2.64534,2.64534,0,0,0-1.2634-.27169,2.49406,2.49406,0,0,0-1.27926.30271,2.4365,2.4365,0,0,0-.827.80834,3.47864,3.47864,0,0,0-.44728,1.17886,7.6268,7.6268,0,0,0-.12948,1.43069,9.01013,9.01013,0,0,0,.12652,1.57771,3.49233,3.49233,0,0,0,.42561,1.196,1.98386,1.98386,0,0,0,.8053.75775,2.73692,2.73692,0,0,0,1.2714.26308,2.51368,2.51368,0,0,0,1.27687-.29981,2.33326,2.33326,0,0,0,.82968-.81124,3.509,3.509,0,0,0,.44434-1.19588,7.57058,7.57058,0,0,0,.13224-1.45328Zm18.67518,4.60411a.9148.9148,0,0,1-.06213.3421.72654.72654,0,0,1-.16961.24608.65858.65858,0,0,1-.25334.14678,1.057,1.057,0,0,1-.2963.04539l-.88336-.00006a1.68323,1.68323,0,0,1-.47694-.05963.91056.91056,0,0,1-.37156-.20923,1.8009,1.8009,0,0,1-.32867-.41551,7.11,7.11,0,0,1-.35295-.67584l-2.54231-5.01016c-.14556-.29962-.29644-.619-.4499-.964-.15088-.345-.28806-.68153-.40931-1.00664h-.0162q.03242.59356.04851,1.1874c.00759.396.01318.8031.01315,1.22149l-.00036,5.6095a.25174.25174,0,0,1-.043.14679.31064.31064,0,0,1-.14826.11309,1.14664,1.14664,0,0,1-.2881.07087,4.19545,4.19545,0,0,1-.92395-.00006,1.09337,1.09337,0,0,1-.28542-.07091.29846.29846,0,0,1-.14014-.11311.272.272,0,0,1-.04049-.14679l.00063-9.63561a.74321.74321,0,0,1,.21821-.58249.76026.76026,0,0,1,.53069-.195l1.11508.00007a1.9866,1.9866,0,0,1,.504.05364,1.04313,1.04313,0,0,1,.36622.17833,1.32816,1.32816,0,0,1,.30428.34491,4.31911,4.31911,0,0,1,.29083.54l1.99036,3.91883c.11594.23751.229.47222.34217.70123.11317.22881.22358.45781.32864.68693s.2074.45521.307.67581.19652.441.29082.66163h.00858c-.01617-.38721-.027-.7889-.03507-1.2101-.00855-.4184-.01042-.8198-.01039-1.19881l.00032-5.0298a.27072.27072,0,0,1,.04566-.15.42449.42449,0,0,1,.159-.1159.98231.98231,0,0,1,.29087-.06768,4.10861,4.10861,0,0,1,.4659-.02268,3.79168,3.79168,0,0,1,.44987.02274.84648.84648,0,0,1,.28011.06772.3178.3178,0,0,1,.13746.11592.29024.29024,0,0,1,.04049.15l-.00063,9.63269Zm31.41635.46868a.25387.25387,0,0,1-.043.14679.2853.2853,0,0,1-.1591.10738,1.44823,1.44823,0,0,1-.30163.06809,4.49236,4.49236,0,0,1-.95636-.00006,1.34076,1.34076,0,0,1-.299-.06813.30442.30442,0,0,1-.15872-.1074.2365.2365,0,0,1-.0459-.1468l.00057-8.7225h-.0162l-2.96077,8.71379a.415.415,0,0,1-.10232.178.54331.54331,0,0,1-.19417.11019,1.21459,1.21459,0,0,1-.31251.05387c-.12365.009-.27734.01418-.455.01417a4.26249,4.26249,0,0,1-.45807-.02274,1.29908,1.29908,0,0,1-.3125-.06521.58777.58777,0,0,1-.19386-.11311.32778.32778,0,0,1-.09422-.15531L205.053,53.029h-.01352l-.00057,8.72249a.25383.25383,0,0,1-.04566.14678.27339.27339,0,0,1-.16178.10739,1.491,1.491,0,0,1-.30162.06809,3.64085,3.64085,0,0,1-.47942.02548,3.68672,3.68672,0,0,1-.47151-.02554,1.44429,1.44429,0,0,1-.30438-.06814.2841.2841,0,0,1-.15871-.1074.25217.25217,0,0,1-.04326-.14679l.00062-9.5508a.90167.90167,0,0,1,.21287-.64738.74591.74591,0,0,1,.56852-.22337l1.35754.00009a2.651,2.651,0,0,1,.62223.06214,1.11831,1.11831,0,0,1,.76756.58825,2.93537,2.93537,0,0,1,.22082.58252l2.2085,6.38685h.03239l2.28733-6.36956a3.71534,3.71534,0,0,1,.2263-.58818,1.359,1.359,0,0,1,.28281-.38747.9228.9228,0,0,1,.38243-.212,1.88867,1.88867,0,0,1,.51449-.06206l1.39545.00009a1.10146,1.10146,0,0,1,.36907.05642.60685.60685,0,0,1,.25036.17262.72827.72827,0,0,1,.151.27131,1.20848,1.20848,0,0,1,.051.3705l-.00061,9.5508Zm14.61077-.556a3.386,3.386,0,0,1-.019.40131,1.08712,1.08712,0,0,1-.05918.26309.33788.33788,0,0,1-.09968.144.20074.20074,0,0,1-.1293.04541l-5.12882-.00034a.62746.62746,0,0,1-.43882-.16132.67945.67945,0,0,1-.17793-.52592l.0006-9.3441a.67977.67977,0,0,1,.178-.52608.62714.62714,0,0,1,.43884-.161l5.09661.00034a.20145.20145,0,0,1,.12641.0425.28985.28985,0,0,1,.09422.144,1.12867,1.12867,0,0,1,.05945.2659,3.34348,3.34348,0,0,1,.0216.4099,3.30169,3.30169,0,0,1-.02166.3929,1.03916,1.03916,0,0,1-.05947.26019.32284.32284,0,0,1-.09424.14429.18943.18943,0,0,1-.12642.045l-3.64475-.00024-.00017,2.6181,3.08436.00021a.22683.22683,0,0,1,.13214.0454.375.375,0,0,1,.0969.14141,1.02585,1.02585,0,0,1,.05915.2571,3.24423,3.24423,0,0,1,.01884.3932,3.32363,3.32363,0,0,1-.01889.3985.981.981,0,0,1-.05919.2518.296.296,0,0,1-.09691.13569.22563.22563,0,0,1-.13215.04229l-3.08436-.00021L225.6,60.342l3.677.00024a.20332.20332,0,0,1,.12929.04793.30613.30613,0,0,1,.09966.14429,1.02632,1.02632,0,0,1,.05915.25989A3.36114,3.36114,0,0,1,229.584,61.19607Zm15.742.57215a.336.336,0,0,1-.0324.15539.25941.25941,0,0,1-.151.1017,1.3758,1.3758,0,0,1-.34727.05958q-.22635.01692-.62224.017c-.22094,0-.39861-.006-.528-.017a1.20559,1.20559,0,0,1-.3124-.06243.36283.36283,0,0,1-.16177-.11592.69927.69927,0,0,1-.08079-.1695l-.91294-2.39476q-.16562-.40742-.32321-.72123a2.40233,2.40233,0,0,0-.353-.52582,1.30467,1.30467,0,0,0-.44425-.31953,1.50879,1.50879,0,0,0-.58469-.10745l-.64651,0-.00026,4.08558a.24058.24058,0,0,1-.05107.14679.33968.33968,0,0,1-.1696.10738,1.60313,1.60313,0,0,1-.31782.0681,4.0386,4.0386,0,0,1-.504.02547,4.20643,4.20643,0,0,1-.50093-.02554,1.54855,1.54855,0,0,1-.32058-.06814.30062.30062,0,0,1-.16415-.1074.23884.23884,0,0,1-.04857-.14679l.00063-9.7345a.67977.67977,0,0,1,.178-.52608.62714.62714,0,0,1,.43884-.161l2.64259.00018q.40386,0,.66271.017c.175.01132.33136.02552.474.03943a4.22306,4.22306,0,0,1,1.10992.317,2.65563,2.65563,0,0,1,.835.58236,2.4569,2.4569,0,0,1,.525.85373,3.261,3.261,0,0,1,.18057,1.13112,3.48326,3.48326,0,0,1-.12944.981,2.57,2.57,0,0,1-.38248.79177,2.62389,2.62389,0,0,1-.625.60486,3.30383,3.30383,0,0,1-.8432.41294,2.44315,2.44315,0,0,1,.431.28262,2.38791,2.38791,0,0,1,.37708.40142,3.95644,3.95644,0,0,1,.33665.53712,7.294,7.294,0,0,1,.307.68432l.85923,2.11216c.08079.2092.13183.36481.15878.46092a.9052.9052,0,0,1,.04048.22619ZM242.64883,54.496a1.63946,1.63946,0,0,0-.22871-.89342,1.23381,1.23381,0,0,0-.74891-.51455,2.278,2.278,0,0,0-.35831-.06522,4.78783,4.78783,0,0,0-.55745-.02534l-.92959-.00006-.00019,3.0394,1.056.00007a2.36579,2.36579,0,0,0,.77314-.11305,1.48763,1.48763,0,0,0,.55232-.31376,1.27518,1.27518,0,0,0,.33111-.48357,1.68211,1.68211,0,0,0,.11056-.63049ZM260.12536,60.429c0,.13861-.00286.25461-.01078.35071a2.12887,2.12887,0,0,1-.03517.24859.6838.6838,0,0,1-.0645.17831.78646.78646,0,0,1-.12672.16949,1.61559,1.61559,0,0,1-.334.246,3.88409,3.88409,0,0,1-.60881.28545,5.28876,5.28876,0,0,1-1.81831.31928,5.04074,5.04074,0,0,1-1.89343-.34193,3.72329,3.72329,0,0,1-1.43589-1.01239,4.58686,4.58686,0,0,1-.90755-1.68806,7.90521,7.90521,0,0,1-.31766-2.35223,7.77954,7.77954,0,0,1,.34771-2.42588,5.09648,5.09648,0,0,1,.97227-1.78123,4.06133,4.06133,0,0,1,1.49519-1.094,4.82649,4.82649,0,0,1,1.92072-.373,4.30366,4.30366,0,0,1,.82153.07635,4.40213,4.40213,0,0,1,.73.19506,3.45165,3.45165,0,0,1,.60335.27724,1.84025,1.84025,0,0,1,.37432.26852.75123.75123,0,0,1,.14548.1865.7212.7212,0,0,1,.06459.18961,2.255,2.255,0,0,1,.03505.2741c.00761.1046.01086.23469.01085.39039,0,.16381-.00575.30521-.01355.42121a1.149,1.149,0,0,1-.05642.28259.37327.37327,0,0,1-.09462.15558.18127.18127,0,0,1-.12634.05079.53524.53524,0,0,1-.299-.144,4.70965,4.70965,0,0,0-.47149-.32523,3.72638,3.72638,0,0,0-.68414-.32265,2.81987,2.81987,0,0,0-.95357-.14406,2.23593,2.23593,0,0,0-1.083.25993,2.37155,2.37155,0,0,0-.81347.74654,3.57063,3.57063,0,0,0-.50912,1.17047,7.12421,7.12421,0,0,0,.01066,3.18639,3.24124,3.24124,0,0,0,.53061,1.13924,2.16727,2.16727,0,0,0,.82681.66736,2.66124,2.66124,0,0,0,1.09353.21779,2.98062,2.98062,0,0,0,.95358-.13544,3.85715,3.85715,0,0,0,.69218-.30266,5.38662,5.38662,0,0,0,.47429-.29966.56613.56613,0,0,1,.28811-.13008.19949.19949,0,0,1,.12394.03121.25806.25806,0,0,1,.08079.133,1.36187,1.36187,0,0,1,.04589.27691c.01075.11879.01618.2772.01617.47789Zm15.79575,1.32715a.2257.2257,0,0,1-.05136.14678.33873.33873,0,0,1-.1696.10738,1.52064,1.52064,0,0,1-.31517.0681,3.99883,3.99883,0,0,1-.49829.02548,4.28743,4.28743,0,0,1-.509-.02555,1.48028,1.48028,0,0,1-.31526-.06813.32236.32236,0,0,1-.16444-.10741.22711.22711,0,0,1-.051-.14679l.00028-4.3345-3.81977-.00025-.00029,4.3345a.23847.23847,0,0,1-.0483.14679.30821.30821,0,0,1-.16722.10738,1.52223,1.52223,0,0,1-.31488.06809,4.06759,4.06759,0,0,1-.5039.02548,4.20872,4.20872,0,0,1-.50105-.02555,1.54058,1.54058,0,0,1-.32049-.06813.3404.3404,0,0,1-.16967-.1074.22576.22576,0,0,1-.05125-.1468l.00066-10.1248a.226.226,0,0,1,.05126-.14689.34105.34105,0,0,1,.16969-.1074,1.54912,1.54912,0,0,1,.3205-.068,4.10749,4.10749,0,0,1,.501-.02546,3.97046,3.97046,0,0,1,.5039.02553,1.52886,1.52886,0,0,1,.31487.068.30892.30892,0,0,1,.16721.10742.23889.23889,0,0,1,.04828.1469l-.00025,3.93559,3.81977.00025.00026-3.93559a.22735.22735,0,0,1,.05106-.14689.32279.32279,0,0,1,.16446-.1074,1.48735,1.48735,0,0,1,.31526-.068,4.18567,4.18567,0,0,1,.50905-.02547,3.90452,3.90452,0,0,1,.49828.02553,1.52771,1.52771,0,0,1,.31517.068.33981.33981,0,0,1,.16959.10742.22611.22611,0,0,1,.05134.1469Zm16.92438-.51369a3.21545,3.21545,0,0,1,.1186.4722.29649.29649,0,0,1-.06462.26032.487.487,0,0,1-.3071.10737c-.14822.01418-.3503.02268-.609.02266-.26656,0-.47666-.006-.62767-.01423a1.6734,1.6734,0,0,1-.34186-.04821.31839.31839,0,0,1-.16718-.10463.65419.65419,0,0,1-.078-.1752L290.082,59.611l-3.836-.00025-.64638,2.095a.70742.70742,0,0,1-.08375.19509.34207.34207,0,0,1-.16425.12438,1.253,1.253,0,0,1-.32326.06239q-.21021.01692-.54955.017a4.994,4.994,0,0,1-.56821-.02555.412.412,0,0,1-.283-.12163.328.328,0,0,1-.05639-.26881,2.9332,2.9332,0,0,1,.11854-.4634l3.14957-9.5084a.8683.8683,0,0,1,.11045-.22869.41057.41057,0,0,1,.20208-.133,1.623,1.623,0,0,1,.38233-.05668c.1616-.008.37978-.01407.64663-.01405.30971,0,.55737.006.74339.01414a1.994,1.994,0,0,1,.42833.05673.39751.39751,0,0,1,.22067.13842.76468.76468,0,0,1,.11582.2488l3.15645,9.5Zm-4.68922-7.8602h-.00855l-1.44407,4.55489,2.89561.00019-1.44345-4.55508Zm20.87041,7.90948a.91464.91464,0,0,1-.06212.3421.727.727,0,0,1-.16958.24608.65985.65985,0,0,1-.25337.14677,1.05657,1.05657,0,0,1-.29628.04539L307.362,62.072a1.68267,1.68267,0,0,1-.47694-.05964.90949.90949,0,0,1-.37157-.20922,1.79832,1.79832,0,0,1-.32864-.41552,7.11036,7.11036,0,0,1-.35292-.67583l-2.54234-5.01016c-.14553-.29962-.29652-.619-.4499-.964-.15088-.345-.28809-.68152-.40931-1.00663h-.01622q.0324.59355.04853,1.18739c.00759.396.01321.8031.01318,1.2215l-.00036,5.6095a.252.252,0,0,1-.043.14678.31092.31092,0,0,1-.14824.11309,1.14653,1.14653,0,0,1-.28819.07088,4.19492,4.19492,0,0,1-.92389-.00006,1.09224,1.09224,0,0,1-.28545-.07092.29836.29836,0,0,1-.14013-.1131.27126.27126,0,0,1-.04058-.1468l.00062-9.6356a.74318.74318,0,0,1,.21833-.58249.76.76,0,0,1,.53069-.195l1.11508.00007a1.986,1.986,0,0,1,.504.05364,1.04271,1.04271,0,0,1,.3661.17832,1.32884,1.32884,0,0,1,.30439.34492,4.33811,4.33811,0,0,1,.29083.54l1.99039,3.91883c.11582.23751.229.47221.34217.70122.11308.22882.22355.45781.32856.68693s.20739.45522.307.67582.19664.441.29083.66162h.00854c-.01619-.3872-.02693-.78889-.035-1.2101-.00759-.41839-.01053-.81979-.01051-1.1988l.00033-5.02981a.27142.27142,0,0,1,.04566-.15.42611.42611,0,0,1,.1591-.11589.9808.9808,0,0,1,.29087-.06769,4.11128,4.11128,0,0,1,.4659-.02267,3.79431,3.79431,0,0,1,.4499.02273.84685.84685,0,0,1,.28011.06773.31887.31887,0,0,1,.13746.11591.29006.29006,0,0,1,.04046.15l-.00062,9.63269Zm15.35454-9.06048a3.579,3.579,0,0,1-.02165.40989,1.14938,1.14938,0,0,1-.05916.2744.38359.38359,0,0,1-.09689.15249.19942.19942,0,0,1-.13212.051l-2.55609-.00017-.00056,8.64029a.22571.22571,0,0,1-.05136.14679.34035.34035,0,0,1-.16957.10738,1.54259,1.54259,0,0,1-.32058.06809,4.04355,4.04355,0,0,1-.501.02548,4.21143,4.21143,0,0,1-.50125-.02554,1.55686,1.55686,0,0,1-.3179-.06814.31735.31735,0,0,1-.16956-.1074.2255.2255,0,0,1-.051-.14679l.00056-8.64031-2.55912-.00017a.18553.18553,0,0,1-.13206-.051.38235.38235,0,0,1-.09686-.1525,1.30858,1.30858,0,0,1-.05913-.27441c-.01086-.11309-.01894-.2489-.01893-.40989,0-.1642.00857-.3053.019-.4213a1.30575,1.30575,0,0,1,.05916-.2772.34968.34968,0,0,1,.09688-.1497.19444.19444,0,0,1,.13206-.04529l7.19751.00047a.2088.2088,0,0,1,.13211.04531.34871.34871,0,0,1,.09687.14971,1.14151,1.14151,0,0,1,.05912.27721,3.68413,3.68413,0,0,1,.0216.4213Z" transform="translate(-11.16094 -3.43026)"/><path class="cls-4" d="M326.02246,35.77734h3.25977a2.60065,2.60065,0,1,1-.03907,5.18067h-1.51464V44.0459h-1.70606Zm1.70606,3.75782h1.2998c.78809,0,1.3457-.31836,1.3457-1.16309,0-.85254-.58789-1.17187-1.31054-1.17187h-1.335Z" transform="translate(-11.16094 -3.43026)"/><path class="cls-4" d="M335.45313,44.0459l-2.78028-8.26856h1.83008l1.17187,3.81934c.35547,1.15527.627,2.13574.8086,2.98047h.02246c.16113-.77149.46875-1.78125.84375-2.9541l1.22949-3.84571h1.73828l-2.85449,8.26856Z" transform="translate(-11.16094 -3.43026)"/><path class="cls-4" d="M343.44238,37.24268h-2.39355V35.77734h6.48437v1.46534h-2.38574V44.0459h-1.70508Z" transform="translate(-11.16094 -3.43026)"/><path class="cls-4" d="M351.35742,35.77734h1.7041v6.80274h3.92481L356.792,44.0459h-5.43457Z" transform="translate(-11.16094 -3.43026)"/><path class="cls-4" d="M358.44238,37.24268h-2.39355V35.77734h6.48437v1.46534h-2.38574V44.0459h-1.70508Z" transform="translate(-11.16094 -3.43026)"/><path class="cls-4" d="M363.58984,35.77734h3.125a3.67832,3.67832,0,0,1,3.79493,4.03028c0,2.41211-1.45606,4.23828-3.86719,4.23828h-3.05274Zm1.70411,6.82422h1.27734c1.51074,0,2.17871-1.17871,2.17871-2.78906,0-1.35107-.625-2.59082-2.168-2.59082H365.294Z" transform="translate(-11.16094 -3.43026)"/></svg>