<?xml version="1.0" encoding="utf-8"?>
<!-- Generator: Adobe Illustrator 24.1.1, SVG Export Plug-In . SVG Version: 6.00 Build 0)  -->
<svg version="1.1" id="Layer_1" xmlns="http://www.w3.org/2000/svg" xmlns:xlink="http://www.w3.org/1999/xlink" x="0px" y="0px"
	 viewBox="0 0 42 48.6" style="enable-background:new 0 0 42 48.6;" xml:space="preserve">
<style type="text/css">
	.st0{fill:#BC9039;}
	.st1{fill:#BC9039;stroke:#BC9039;stroke-miterlimit:10;}
	.st2{fill:none;stroke:#BC9039;stroke-miterlimit:10;}
</style>
<g id="Group_6867" transform="translate(-0.46 0.5)">
	<path id="Rectangle_17330" class="st0" d="M9.1,23.6h4c0.6,0,1,0.4,1,1v12c0,0.6-0.4,1-1,1h-4c-0.6,0-1-0.4-1-1v-12
		C8.1,24.1,8.5,23.6,9.1,23.6z"/>
	<path id="Rectangle_17331" class="st0" d="M17.1,18.6h3c0.6,0,1,0.4,1,1v17c0,0.6-0.4,1-1,1h-3c-0.6,0-1-0.4-1-1v-17
		C16.1,19.1,16.5,18.6,17.1,18.6z"/>
	<path id="Rectangle_17332" class="st0" d="M25.1,11.6h3c0.6,0,1,0.4,1,1v24c0,0.6-0.4,1-1,1h-3c-0.6,0-1-0.4-1-1v-24
		C24.1,12.1,24.5,11.6,25.1,11.6z"/>
	<path id="Rectangle_17333" class="st0" d="M32.1,13.6h4c0.6,0,1,0.4,1,1v22c0,0.6-0.4,1-1,1h-4c-0.6,0-1-0.4-1-1v-22
		C31.1,14.1,31.5,13.6,32.1,13.6z"/>
</g>
<line class="st1" x1="5.4" y1="8" x2="5.4" y2="40.6"/>
<line class="st2" x1="5.7" y1="40.1" x2="37" y2="40.1"/>
</svg>
